<svg width="26" height="26" viewBox="0 0 26 26" fill="none" xmlns="http://www.w3.org/2000/svg">
<g id="percent/circle" clip-path="url(#clip0_201_1705)">
<path id="Icon" d="M7.58398 18.4168L18.4173 7.5835M8.2608 8.26051H9.0733M8.2608 9.07301H9.0733M16.9275 16.9272H17.74M16.9275 17.7397H17.74M24.9173 13.0002C24.9173 19.5816 19.582 24.9168 13.0007 24.9168C6.41926 24.9168 1.08398 19.5816 1.08398 13.0002C1.08398 6.41877 6.41926 1.0835 13.0007 1.0835C19.582 1.0835 24.9173 6.41877 24.9173 13.0002ZM9.75065 8.66683C9.75065 9.26514 9.26563 9.75016 8.66732 9.75016C8.06901 9.75016 7.58398 9.26514 7.58398 8.66683C7.58398 8.06852 8.06901 7.5835 8.66732 7.5835C9.26563 7.5835 9.75065 8.06852 9.75065 8.66683ZM18.4173 17.3335C18.4173 17.9318 17.9323 18.4168 17.334 18.4168C16.7357 18.4168 16.2506 17.9318 16.2506 17.3335C16.2506 16.7352 16.7357 16.2502 17.334 16.2502C17.9323 16.2502 18.4173 16.7352 18.4173 17.3335Z" stroke="#1B62CD" stroke-width="2" stroke-linecap="round"/>
</g>
<defs>
<clipPath id="clip0_201_1705">
<rect width="26" height="26" fill="white"/>
</clipPath>
</defs>
</svg>
