<svg width="26" height="26" viewBox="0 0 26 26" fill="none" xmlns="http://www.w3.org/2000/svg">
<g id="pie chart/2">
<g id="Icon">
<path d="M19.0669 21.1668L16.4742 15.3646C16.3507 15.0881 16.4778 14.764 16.7565 14.6453L22.7105 12.1088C22.9829 11.9928 23.3 12.1164 23.4 12.3951C23.6766 13.1662 23.8327 14.0047 23.8327 14.8613C23.8327 17.7318 22.2035 20.2022 19.7631 21.4287C19.5003 21.5608 19.1869 21.4353 19.0669 21.1668Z" stroke="#1B62CD" stroke-width="2"/>
<path d="M15.166 2.69126V9.97306C15.166 10.3675 15.5741 10.6297 15.9329 10.4657L22.2747 7.56659C22.5396 7.44547 22.6628 7.13542 22.5359 6.87321C21.249 4.21569 18.6992 2.36782 15.7076 2.16765C15.4091 2.14767 15.166 2.3921 15.166 2.69126Z" stroke="#1B62CD" stroke-width="2"/>
<path d="M2.16602 15.1496C2.16602 19.9361 6.04621 23.8163 10.8327 23.8163C11.8074 23.8163 12.7446 23.6554 13.6191 23.3587C13.9023 23.2626 14.0339 22.9444 13.9203 22.6678L10.8733 15.2485C10.8465 15.1832 10.8327 15.1133 10.8327 15.0427V7.02465C10.8327 6.7255 10.5895 6.48122 10.2909 6.49964C5.75682 6.7793 2.16602 10.5451 2.16602 15.1496Z" stroke="#1B62CD" stroke-width="2"/>
</g>
</g>
</svg>
