<svg width="49" height="49" viewBox="0 0 49 49" fill="none" xmlns="http://www.w3.org/2000/svg">
<rect x="0.625" y="0.375" width="48.375" height="48.375" rx="4" fill="#2770FE"/>
<path d="M17.3893 23.3655C17.4583 23.3542 17.5282 23.349 17.5981 23.3499H29.5031L29.2435 23.2279C28.9898 23.1065 28.7589 22.9413 28.5613 22.7398L25.2229 19.3661C24.7832 18.9419 24.7093 18.2596 25.0478 17.7494C25.4417 17.2057 26.1972 17.0877 26.7353 17.4858C26.7788 17.518 26.8201 17.553 26.8589 17.5908L32.8959 23.6915C33.3677 24.1678 33.3681 24.9403 32.8968 25.4171C32.8965 25.4174 32.8962 25.4178 32.8959 25.4181L26.8589 31.5188C26.3867 31.9947 25.6223 31.9936 25.1514 31.5164C25.1143 31.4789 25.0797 31.4389 25.0478 31.3968C24.7093 30.8866 24.7832 30.2043 25.2229 29.7801L28.5553 26.4003C28.7324 26.2211 28.9361 26.0708 29.159 25.9549L29.5212 25.7902H17.6646C17.0478 25.8134 16.5066 25.378 16.3908 24.7653C16.284 24.1001 16.7311 23.4734 17.3893 23.3655Z" fill="white"/>
</svg>
