<svg width="26" height="26" viewBox="0 0 26 26" fill="none" xmlns="http://www.w3.org/2000/svg">
<g id="search/percentage">
<path id="Icon" d="M6.87688 13.3759L6.16977 14.083L7.58398 15.4972L8.29109 14.7901L6.87688 13.3759ZM14.7911 8.29011L15.4982 7.58301L14.084 6.16879L13.3769 6.8759L14.7911 8.29011ZM7.99008 6.98922C7.43779 6.98922 6.99008 7.43693 6.99008 7.98922C6.99008 8.5415 7.43779 8.98922 7.99008 8.98922V6.98922ZM8.47758 8.98922C9.02986 8.98922 9.47758 8.5415 9.47758 7.98922C9.47758 7.43693 9.02986 6.98922 8.47758 6.98922V8.98922ZM7.99008 7.47672C7.43779 7.47672 6.99008 7.92443 6.99008 8.47672C6.99008 9.029 7.43779 9.47672 7.99008 9.47672V7.47672ZM8.47758 9.47672C9.02986 9.47672 9.47758 9.029 9.47758 8.47672C9.47758 7.92443 9.02986 7.47672 8.47758 7.47672V9.47672ZM13.1901 12.1892C12.6378 12.1892 12.1901 12.6369 12.1901 13.1892C12.1901 13.7415 12.6378 14.1892 13.1901 14.1892V12.1892ZM13.6776 14.1892C14.2299 14.1892 14.6776 13.7415 14.6776 13.1892C14.6776 12.6369 14.2299 12.1892 13.6776 12.1892V14.1892ZM13.1901 12.6767C12.6378 12.6767 12.1901 13.1244 12.1901 13.6767C12.1901 14.229 12.6378 14.6767 13.1901 14.6767V12.6767ZM13.6776 14.6767C14.2299 14.6767 14.6776 14.229 14.6776 13.6767C14.6776 13.1244 14.2299 12.6767 13.6776 12.6767V14.6767ZM24.2102 25.6234C24.6007 26.014 25.2339 26.014 25.6244 25.6234C26.0149 25.2329 26.0149 24.5998 25.6244 24.2092L24.2102 25.6234ZM8.29109 14.7901L14.7911 8.29011L13.3769 6.8759L6.87688 13.3759L8.29109 14.7901ZM7.88398 8.23301C7.88398 8.03971 8.04068 7.88301 8.23398 7.88301V9.88301C9.14526 9.88301 9.88398 9.14428 9.88398 8.23301H7.88398ZM8.23398 7.88301C8.42728 7.88301 8.58398 8.03971 8.58398 8.23301H6.58398C6.58398 9.14428 7.32272 9.88301 8.23398 9.88301V7.88301ZM8.58398 8.23301C8.58398 8.42631 8.42728 8.58301 8.23398 8.58301V6.58301C7.32272 6.58301 6.58398 7.32174 6.58398 8.23301H8.58398ZM8.23398 8.58301C8.04068 8.58301 7.88398 8.42631 7.88398 8.23301H9.88398C9.88398 7.32174 9.14526 6.58301 8.23398 6.58301V8.58301ZM7.99008 8.98922H8.47758V6.98922H7.99008V8.98922ZM7.99008 9.47672H8.47758V7.47672H7.99008V9.47672ZM13.084 13.433C13.084 13.2397 13.2407 13.083 13.434 13.083V15.083C14.3453 15.083 15.084 14.3443 15.084 13.433H13.084ZM13.434 13.083C13.6273 13.083 13.784 13.2397 13.784 13.433H11.784C11.784 14.3443 12.5227 15.083 13.434 15.083V13.083ZM13.784 13.433C13.784 13.6263 13.6273 13.783 13.434 13.783V11.783C12.5227 11.783 11.784 12.5217 11.784 13.433H13.784ZM13.434 13.783C13.2407 13.783 13.084 13.6263 13.084 13.433H15.084C15.084 12.5217 14.3453 11.783 13.434 11.783V13.783ZM13.1901 14.1892H13.6776V12.1892H13.1901V14.1892ZM13.1901 14.6767H13.6776V12.6767H13.1901V14.6767ZM19.7114 10.8967C19.7114 15.7644 15.7654 19.7105 10.8977 19.7105V21.7105C16.87 21.7105 21.7114 16.869 21.7114 10.8967H19.7114ZM10.8977 19.7105C6.03002 19.7105 2.08398 15.7644 2.08398 10.8967H0.0839844C0.0839844 16.869 4.92545 21.7105 10.8977 21.7105V19.7105ZM2.08398 10.8967C2.08398 6.02905 6.03002 2.08301 10.8977 2.08301V0.0830078C4.92545 0.0830078 0.0839844 4.92448 0.0839844 10.8967H2.08398ZM10.8977 2.08301C15.7654 2.08301 19.7114 6.02905 19.7114 10.8967H21.7114C21.7114 4.92448 16.87 0.0830078 10.8977 0.0830078V2.08301ZM17.2004 18.6136L24.2102 25.6234L25.6244 24.2092L18.6146 17.1994L17.2004 18.6136Z" fill="white"/>
</g>
</svg>
