<svg width="27" height="27" viewBox="0 0 27 27" fill="none" xmlns="http://www.w3.org/2000/svg">
<g id="bullseye">
<path id="Icon" d="M13.0007 14.0002L16.2506 10.7502M24.9173 14.0002C24.9173 20.5815 19.582 25.9168 13.0007 25.9168C6.41926 25.9168 1.08398 20.5815 1.08398 14.0002C1.08398 7.41876 6.41926 2.08349 13.0007 2.08349M20.584 14.0002C20.584 18.1883 17.1888 21.5835 13.0007 21.5835C8.81249 21.5835 5.41732 18.1883 5.41732 14.0002C5.41732 9.812 8.81249 6.41682 13.0007 6.41682M16.2506 10.2085V5.46303C16.2506 5.31721 16.3094 5.17755 16.4137 5.07563L19.6637 1.8995C20.0067 1.5643 20.584 1.80731 20.584 2.28689V5.87516C20.584 6.17431 20.8265 6.41682 21.1256 6.41682H24.7139C25.1935 6.41682 25.4365 6.99409 25.1013 7.33708L21.9252 10.5871C21.8233 10.6914 21.6836 10.7502 21.5378 10.7502H16.7923C16.4932 10.7502 16.2506 10.5076 16.2506 10.2085Z" stroke="white" stroke-width="2" stroke-linecap="round"/>
</g>
</svg>
