<svg width="26" height="26" viewBox="0 0 26 26" fill="none" xmlns="http://www.w3.org/2000/svg">
<g id="coins">
<path id="Icon" d="M17.334 4.33317C17.334 5.52979 14.4238 6.49984 10.834 6.49984C7.24413 6.49984 4.33398 5.52979 4.33398 4.33317M17.334 4.33317C17.334 3.13655 14.4238 2.1665 10.834 2.1665C7.24413 2.1665 4.33398 3.13655 4.33398 4.33317M17.334 4.33317V8.6665M4.33398 4.33317V8.6665C4.33398 9.86312 7.24413 10.8332 10.834 10.8332C14.4238 10.8332 17.334 9.86312 17.334 8.6665M21.6673 10.7099C21.6673 11.9065 18.7572 12.8766 15.1673 12.8766C11.5775 12.8766 8.66732 11.9065 8.66732 10.7099V15.0433M21.6673 10.7099C21.6673 9.7665 19.8586 8.96394 17.334 8.6665M21.6673 10.7099V15.0433C21.6673 16.2399 18.7572 17.2099 15.1673 17.2099C11.5775 17.2099 8.66732 16.2399 8.66732 15.0433M4.33398 17.0866C4.33398 18.2833 7.24413 19.2533 10.834 19.2533C14.4238 19.2533 17.334 18.2833 17.334 17.0866V21.42C17.334 22.6166 14.4238 23.5867 10.834 23.5867C7.24413 23.5867 4.33398 22.6166 4.33398 21.42V17.0866ZM4.33398 17.0866C4.33398 16.1433 6.14273 15.3407 8.66732 15.0433" stroke="#1B62CD" stroke-width="2"/>
</g>
</svg>
