<svg width="26" height="26" viewBox="0 0 26 26" fill="none" xmlns="http://www.w3.org/2000/svg">
<g id="credit card">
<path id="Icon" d="M2.16602 8.66683H23.8327M6.49935 17.3335H10.8327M15.166 17.3335H19.4993M5.63268 21.6668H20.366C21.5795 21.6668 22.1862 21.6668 22.6497 21.4307C23.0573 21.2229 23.3888 20.8915 23.5965 20.4838C23.8327 20.0203 23.8327 19.4136 23.8327 18.2002V7.80016C23.8327 6.58672 23.8327 5.97999 23.5965 5.51652C23.3888 5.10883 23.0573 4.77737 22.6497 4.56965C22.1862 4.3335 21.5795 4.3335 20.366 4.3335H5.63268C4.41924 4.3335 3.81251 4.3335 3.34904 4.56965C2.94135 4.77737 2.60989 5.10883 2.40217 5.51652C2.16602 5.97999 2.16602 6.58672 2.16602 7.80016V18.2002C2.16602 19.4136 2.16602 20.0203 2.40217 20.4838C2.60989 20.8915 2.94135 21.2229 3.34904 21.4307C3.81251 21.6668 4.41924 21.6668 5.63268 21.6668Z" stroke="#1B62CD" stroke-width="2" stroke-linecap="round"/>
</g>
</svg>
