<svg width="94" height="95" viewBox="0 0 94 95" fill="none" xmlns="http://www.w3.org/2000/svg">
<ellipse cx="47" cy="47.5" rx="46.5" ry="47.5" fill="#FFF0E9"/>
<path d="M64.1679 68.0821C64.5584 68.4726 65.1916 68.4726 65.5821 68.0821C65.9726 67.6916 65.9726 67.0584 65.5821 66.6679L64.1679 68.0821ZM57.5662 46.3456C57.5662 53.9233 51.4233 60.0662 43.8456 60.0662V62.0662C52.5278 62.0662 59.5662 55.0278 59.5662 46.3456H57.5662ZM43.8456 60.0662C36.2679 60.0662 30.125 53.9233 30.125 46.3456H28.125C28.125 55.0278 35.1633 62.0662 43.8456 62.0662V60.0662ZM30.125 46.3456C30.125 38.7679 36.2679 32.625 43.8456 32.625V30.625C35.1633 30.625 28.125 37.6633 28.125 46.3456H30.125ZM43.8456 32.625C51.4233 32.625 57.5662 38.7679 57.5662 46.3456H59.5662C59.5662 37.6633 52.5278 30.625 43.8456 30.625V32.625ZM53.6532 57.5674L64.1679 68.0821L65.5821 66.6679L55.0674 56.1532L53.6532 57.5674Z" fill="#CD6132"/>
</svg>
