<svg width="58" height="57" viewBox="0 0 58 57" fill="none" xmlns="http://www.w3.org/2000/svg">
<rect x="0.5" width="57" height="57" rx="5.32979" fill="#E9EDFF"/>
<path d="M25.5 24.5L27 26M36 25L35 26M35 34L36.5 35.5M27 34L26 35M36 30C36 32.7614 33.7614 35 31 35C28.2386 35 26 32.7614 26 30C26 27.2386 28.2386 25 31 25C33.7614 25 36 27.2386 36 30ZM26 22C26 23.6569 24.6569 25 23 25C21.3431 25 20 23.6569 20 22C20 20.3431 21.3431 19 23 19C24.6569 19 26 20.3431 26 22ZM40 23C40 24.1046 39.1046 25 38 25C36.8954 25 36 24.1046 36 23C36 21.8954 36.8954 21 38 21C39.1046 21 40 21.8954 40 23ZM26 37C26 38.1046 25.1046 39 24 39C22.8954 39 22 38.1046 22 37C22 35.8954 22.8954 35 24 35C25.1046 35 26 35.8954 26 37ZM42 38C42 39.6569 40.6569 41 39 41C37.3431 41 36 39.6569 36 38C36 36.3431 37.3431 35 39 35C40.6569 35 42 36.3431 42 38Z" stroke="#1B62CD" stroke-width="2" stroke-linecap="round"/>
</svg>
