<svg width="75" height="76" viewBox="0 0 75 76" fill="none" xmlns="http://www.w3.org/2000/svg">
<circle cx="37.5" cy="38" r="37.5" fill="#E9EDFF"/>
<path d="M29.785 47.945C32.7483 45.565 35.07 43.6167 36.75 42.1C38.43 40.56 39.8417 38.9617 40.985 37.305C42.1517 35.625 42.735 33.98 42.735 32.37C42.735 30.8533 42.3617 29.6633 41.615 28.8C40.8917 27.9133 39.7133 27.47 38.08 27.47C36.4933 27.47 35.2567 27.9717 34.37 28.975C33.5067 29.955 33.04 31.2733 32.97 32.93H29.89C29.9833 30.3167 30.7767 28.2983 32.27 26.875C33.7633 25.4517 35.6883 24.74 38.045 24.74C40.4483 24.74 42.35 25.405 43.75 26.735C45.1733 28.065 45.885 29.8967 45.885 32.23C45.885 34.1667 45.3017 36.0567 44.135 37.9C42.9917 39.72 41.685 41.33 40.215 42.73C38.745 44.1067 36.8667 45.7167 34.58 47.56H46.62V50.22H29.785V47.945Z" fill="#4263F8"/>
</svg>
