<svg width="94" height="95" viewBox="0 0 94 95" fill="none" xmlns="http://www.w3.org/2000/svg">
<ellipse cx="47" cy="47.5" rx="46.5" ry="47.5" fill="#E9EDFF"/>
<path d="M47 65.375C56.8721 65.375 64.875 57.3721 64.875 47.5C64.875 37.6279 56.8721 29.625 47 29.625M47 65.375C37.1279 65.375 29.125 57.3721 29.125 47.5C29.125 37.6279 37.1279 29.625 47 29.625M47 65.375C50.5899 65.375 53.5 57.3721 53.5 47.5C53.5 37.6279 50.5899 29.625 47 29.625M47 65.375C43.4101 65.375 40.5 57.3721 40.5 47.5C40.5 37.6279 43.4101 29.625 47 29.625M30.75 41H63.25M30.75 52.375H63.25" stroke="#1E76FA" stroke-width="2" stroke-linecap="round"/>
</svg>
