<svg width="94" height="96" viewBox="0 0 94 96" fill="none" xmlns="http://www.w3.org/2000/svg">
<ellipse cx="47" cy="48" rx="46.5" ry="47.5" fill="#FFF6DD"/>
<path d="M40.5 44.75H53.5M40.5 51.25H47M61.625 48C61.625 56.0772 55.0772 62.625 47 62.625C45.1199 62.625 43.3226 62.2702 41.6715 61.624C41.051 61.3811 40.3797 61.2769 39.7226 61.3876L33.5007 62.4354C32.9498 62.5282 32.4718 62.0502 32.5646 61.4993L33.6124 55.2774C33.7231 54.6203 33.6189 53.949 33.376 53.3284C32.7298 51.6774 32.375 49.8801 32.375 48C32.375 39.9228 38.9228 33.375 47 33.375C55.0772 33.375 61.625 39.9228 61.625 48Z" stroke="#FFC700" stroke-width="3.25" stroke-linecap="round"/>
</svg>
