<svg width="58" height="57" viewBox="0 0 58 57" fill="none" xmlns="http://www.w3.org/2000/svg">
<g id="Frame 18">
<rect id="Rectangle 19" x="0.5" width="57" height="57" rx="5.32979" fill="#E9EDFF"/>
<path id="Vector" d="M29.5 13.6699V41.1699" stroke="#1B62CD" stroke-width="2.5" stroke-linecap="round" stroke-linejoin="round"/>
<path id="Vector_2" d="M35.75 18.6699H26.375C25.2147 18.6699 24.1019 19.1308 23.2814 19.9513C22.4609 20.7718 22 21.8846 22 23.0449C22 24.2052 22.4609 25.318 23.2814 26.1385C24.1019 26.959 25.2147 27.4199 26.375 27.4199H32.625C33.7853 27.4199 34.8981 27.8808 35.7186 28.7013C36.5391 29.5218 37 30.6346 37 31.7949C37 32.9552 36.5391 34.068 35.7186 34.8885C34.8981 35.709 33.7853 36.1699 32.625 36.1699H22" stroke="#1B62CD" stroke-width="2.5" stroke-linecap="round" stroke-linejoin="round"/>
</g>
</svg>
