<svg width="94" height="96" viewBox="0 0 94 96" fill="none" xmlns="http://www.w3.org/2000/svg">
<ellipse cx="47" cy="48" rx="46.5" ry="47.5" fill="#D2F2F6"/>
<path d="M32.375 36.625L45.0047 46.4481C46.1783 47.3609 47.8217 47.3609 48.9953 46.4481L61.625 36.625M35.95 61H58.05C59.8702 61 60.7803 61 61.4755 60.6458C62.087 60.3342 62.5842 59.837 62.8958 59.2255C63.25 58.5303 63.25 57.6202 63.25 55.8V40.2C63.25 38.3798 63.25 37.4697 62.8958 36.7745C62.5842 36.163 62.087 35.6658 61.4755 35.3542C60.7803 35 59.8702 35 58.05 35H35.95C34.1298 35 33.2197 35 32.5245 35.3542C31.913 35.6658 31.4158 36.163 31.1042 36.7745C30.75 37.4697 30.75 38.3798 30.75 40.2V55.8C30.75 57.6202 30.75 58.5303 31.1042 59.2255C31.4158 59.837 31.913 60.3342 32.5245 60.6458C33.2197 61 34.1298 61 35.95 61Z" stroke="#007CA4" stroke-width="2"/>
</svg>
