<svg width="75" height="75" viewBox="0 0 75 75" fill="none" xmlns="http://www.w3.org/2000/svg">
<circle cx="37.5" cy="37.5" r="37.5" fill="#FFF6DD"/>
<path d="M30.1 31.065C30.2633 28.9183 31.0917 27.2383 32.585 26.025C34.0783 24.8117 36.015 24.205 38.395 24.205C39.9817 24.205 41.3467 24.4967 42.49 25.08C43.6567 25.64 44.5317 26.41 45.115 27.39C45.7217 28.37 46.025 29.4783 46.025 30.715C46.025 32.1617 45.605 33.41 44.765 34.46C43.9483 35.51 42.875 36.1867 41.545 36.49V36.665C43.0617 37.0383 44.2633 37.7733 45.15 38.87C46.0367 39.9667 46.48 41.4017 46.48 43.175C46.48 44.505 46.1767 45.7067 45.57 46.78C44.9633 47.83 44.0533 48.6583 42.84 49.265C41.6267 49.8717 40.1683 50.175 38.465 50.175C35.9917 50.175 33.9617 49.5333 32.375 48.25C30.7883 46.9433 29.9017 45.1 29.715 42.72H32.795C32.9583 44.12 33.53 45.2633 34.51 46.15C35.49 47.0367 36.7967 47.48 38.43 47.48C40.0633 47.48 41.3 47.06 42.14 46.22C43.0033 45.3567 43.435 44.2483 43.435 42.895C43.435 41.145 42.8517 39.885 41.685 39.115C40.5183 38.345 38.7567 37.96 36.4 37.96H35.595V35.3H36.435C38.5817 35.2767 40.2033 34.9267 41.3 34.25C42.3967 33.55 42.945 32.4767 42.945 31.03C42.945 29.7933 42.5367 28.8017 41.72 28.055C40.9267 27.3083 39.7833 26.935 38.29 26.935C36.8433 26.935 35.6767 27.3083 34.79 28.055C33.9033 28.8017 33.3783 29.805 33.215 31.065H30.1Z" fill="#FFBD06"/>
</svg>
