<svg width="50" height="50" viewBox="0 0 50 50" fill="none" xmlns="http://www.w3.org/2000/svg">
<g id="Frame">
<path id="Vector" d="M45 0H5C2.23858 0 0 2.23858 0 5V45C0 47.7614 2.23858 50 5 50H45C47.7614 50 50 47.7614 50 45V5C50 2.23858 47.7614 0 45 0Z" fill="#93C5F3" fill-opacity="0.45"/>
<path id="Vector_2" d="M36.0496 15.7628C35.4112 15.1241 34.6531 14.6174 33.8188 14.2717C32.9845 13.926 32.0902 13.748 31.1871 13.748C30.284 13.748 29.3897 13.926 28.5554 14.2717C27.7211 14.6174 26.9631 15.1241 26.3246 15.7628L24.9996 17.0878L23.6746 15.7628C22.385 14.4732 20.6359 13.7487 18.8121 13.7487C16.9883 13.7487 15.2392 14.4732 13.9496 15.7628C12.66 17.0524 11.9355 18.8015 11.9355 20.6253C11.9355 22.4491 12.66 24.1982 13.9496 25.4878L15.2746 26.8128L24.9996 36.5378L34.7246 26.8128L36.0496 25.4878C36.6884 24.8494 37.195 24.0913 37.5408 23.257C37.8865 22.4227 38.0644 21.5284 38.0644 20.6253C38.0644 19.7222 37.8865 18.8279 37.5408 17.9936C37.195 17.1593 36.6884 16.4012 36.0496 15.7628Z" stroke="#4F81FF" stroke-width="2.5" stroke-linecap="round" stroke-linejoin="round"/>
</g>
</svg>
