<svg width="83" height="82" viewBox="0 0 83 82" fill="none" xmlns="http://www.w3.org/2000/svg">
<circle cx="41.6544" cy="40.7676" r="40.7676" fill="#FFF6DD"/>
<path d="M33.6092 33.5938C33.7867 31.2601 34.6872 29.4337 36.3107 28.1146C37.9342 26.7955 40.0396 26.136 42.627 26.136C44.3519 26.136 45.8358 26.4531 47.0788 27.0873C48.3471 27.6961 49.2984 28.5332 49.9325 29.5985C50.5921 30.6639 50.9218 31.8689 50.9218 33.2133C50.9218 34.786 50.4652 36.1431 49.552 37.2846C48.6642 38.4261 47.4973 39.1617 46.0514 39.4915V39.6817C47.7003 40.0876 49.0066 40.8867 49.9706 42.0789C50.9345 43.2711 51.4165 44.8311 51.4165 46.759C51.4165 48.2049 51.0867 49.5113 50.4272 50.6781C49.7676 51.8196 48.7783 52.7201 47.4593 53.3797C46.1402 54.0392 44.5548 54.369 42.7031 54.369C40.0142 54.369 37.8073 53.6714 36.0824 52.2762C34.3575 50.8557 33.3935 48.8517 33.1906 46.2644H36.539C36.7166 47.7863 37.338 49.0293 38.4034 49.9932C39.4688 50.9572 40.8894 51.4391 42.665 51.4391C44.4407 51.4391 45.7851 50.9825 46.6983 50.0693C47.6368 49.1308 48.1061 47.9259 48.1061 46.4546C48.1061 44.5521 47.472 43.1823 46.2036 42.3452C44.9353 41.5081 43.0201 41.0896 40.4581 41.0896H39.583V38.1978H40.4962C42.8299 38.1724 44.5929 37.7919 45.7851 37.0563C46.9773 36.2953 47.5734 35.1284 47.5734 33.5557C47.5734 32.2113 47.1295 31.1332 46.2417 30.3215C45.3792 29.5098 44.1363 29.1039 42.5128 29.1039C40.9401 29.1039 39.6718 29.5098 38.7078 30.3215C37.7439 31.1332 37.1732 32.224 36.9956 33.5938H33.6092Z" fill="#FFBD06"/>
</svg>
