<svg width="50" height="50" viewBox="0 0 50 50" fill="none" xmlns="http://www.w3.org/2000/svg">
<g id="Frame">
<path id="Vector" d="M45 0H5C2.23858 0 0 2.23858 0 5V45C0 47.7614 2.23858 50 5 50H45C47.7614 50 50 47.7614 50 45V5C50 2.23858 47.7614 0 45 0Z" fill="#93C5F3" fill-opacity="0.45"/>
<g id="Mask group">
<mask id="mask0_201_1660" style="mask-type:luminance" maskUnits="userSpaceOnUse" x="8" y="10" width="32" height="32">
<g id="Group">
<path id="Vector_2" fill-rule="evenodd" clip-rule="evenodd" d="M21.25 33.75C20 33.75 16.25 30 16.25 28.75C16.25 28.3337 16.6663 27.5 17.5 26.25L12.5 25L15 21.25L20 22.5C25 15 32.5 12.5 37.5 12.5C37.5 17.5 35 25 27.5 30L28.75 35L25 37.5L23.75 32.5C22.5 33.3337 21.6663 33.75 21.25 33.75ZM20.05 29.95C20.4925 30.3937 20.9488 30.79 21.3288 31.0625C21.6075 30.9075 21.955 30.6925 22.3638 30.42L26.1138 27.92C30.9863 24.67 33.9125 19.9 34.7488 15.2512C30.1 16.0887 25.3288 19.0137 22.08 23.8862L19.58 27.6362C19.3075 28.045 19.0925 28.3925 18.9363 28.6712C19.2113 29.0512 19.6063 29.5087 20.0488 29.9512L20.05 29.95Z" fill="white" stroke="#A11CF2" stroke-width="5"/>
</g>
</mask>
<g mask="url(#mask0_201_1660)">
<path id="Vector_3" fill-rule="evenodd" clip-rule="evenodd" d="M21.25 33.75C20 33.75 16.25 30 16.25 28.75C16.25 28.3337 16.6663 27.5 17.5 26.25L12.5 25L15 21.25L20 22.5C25 15 32.5 12.5 37.5 12.5C37.5 17.5 35 25 27.5 30L28.75 35L25 37.5L23.75 32.5C22.5 33.3337 21.6663 33.75 21.25 33.75ZM20.05 29.95C20.4925 30.3937 20.9488 30.79 21.3288 31.0625C21.6075 30.9075 21.955 30.6925 22.3638 30.42L26.1138 27.92C30.9863 24.67 33.9125 19.9 34.7488 15.2512C30.1 16.0887 25.3288 19.0137 22.08 23.8862L19.58 27.6362C19.3075 28.045 19.0925 28.3925 18.9363 28.6712C19.2113 29.0512 19.6063 29.5087 20.0488 29.9512L20.05 29.95Z" fill="#272D37" stroke="#4F81FF" stroke-width="5"/>
</g>
</g>
<g id="Mask group_2">
<mask id="mask1_201_1660" style="mask-type:luminance" maskUnits="userSpaceOnUse" x="25" y="16" width="9" height="9">
<g id="Group_2">
<path id="Vector_4" d="M29.375 22.5C30.4105 22.5 31.25 21.6606 31.25 20.625C31.25 19.5895 30.4105 18.75 29.375 18.75C28.3395 18.75 27.5 19.5895 27.5 20.625C27.5 21.6606 28.3395 22.5 29.375 22.5Z" fill="white" stroke="#A11CF2" stroke-width="5"/>
</g>
</mask>
<g mask="url(#mask1_201_1660)">
<path id="Vector_5" d="M29.375 22.5C30.4105 22.5 31.25 21.6606 31.25 20.625C31.25 19.5895 30.4105 18.75 29.375 18.75C28.3395 18.75 27.5 19.5895 27.5 20.625C27.5 21.6606 28.3395 22.5 29.375 22.5Z" fill="#272D37" stroke="#4F81FF" stroke-width="5"/>
</g>
</g>
<g id="Mask group_3">
<mask id="mask2_201_1660" style="mask-type:luminance" maskUnits="userSpaceOnUse" x="10" y="26" width="14" height="14">
<g id="Group_3">
<path id="Vector_6" fill-rule="evenodd" clip-rule="evenodd" d="M15 30L16.25 31.875C15.4163 32.7088 15 33.75 15 35C16.25 35 17.2913 34.5838 18.125 33.75L20 35C18.3338 36.6663 15.8338 37.5 12.5 37.5C12.5 34.1663 13.3338 31.6663 15 30Z" fill="white" stroke="#A11CF2" stroke-width="5"/>
</g>
</mask>
<g mask="url(#mask2_201_1660)">
<path id="Vector_7" fill-rule="evenodd" clip-rule="evenodd" d="M15 30L16.25 31.875C15.4163 32.7088 15 33.75 15 35C16.25 35 17.2913 34.5838 18.125 33.75L20 35C18.3338 36.6663 15.8338 37.5 12.5 37.5C12.5 34.1663 13.3338 31.6663 15 30Z" fill="#272D37" stroke="#4F81FF" stroke-width="5"/>
</g>
</g>
</g>
</svg>
