<svg width="60" height="61" viewBox="0 0 60 61" fill="none" xmlns="http://www.w3.org/2000/svg">
<circle cx="30" cy="30.5" r="30" fill="#1A7BFF"/>
<path d="M23.8769 30.3759L23.1698 31.083L24.584 32.4972L25.2911 31.7901L23.8769 30.3759ZM31.7911 25.2901L32.4982 24.583L31.084 23.1688L30.3769 23.8759L31.7911 25.2901ZM24.9901 23.9892C24.4378 23.9892 23.9901 24.4369 23.9901 24.9892C23.9901 25.5415 24.4378 25.9892 24.9901 25.9892V23.9892ZM25.4776 25.9892C26.0299 25.9892 26.4776 25.5415 26.4776 24.9892C26.4776 24.4369 26.0299 23.9892 25.4776 23.9892V25.9892ZM24.9901 24.4767C24.4378 24.4767 23.9901 24.9244 23.9901 25.4767C23.9901 26.029 24.4378 26.4767 24.9901 26.4767V24.4767ZM25.4776 26.4767C26.0299 26.4767 26.4776 26.029 26.4776 25.4767C26.4776 24.9244 26.0299 24.4767 25.4776 24.4767V26.4767ZM30.1901 29.1892C29.6378 29.1892 29.1901 29.6369 29.1901 30.1892C29.1901 30.7415 29.6378 31.1892 30.1901 31.1892V29.1892ZM30.6776 31.1892C31.2299 31.1892 31.6776 30.7415 31.6776 30.1892C31.6776 29.6369 31.2299 29.1892 30.6776 29.1892V31.1892ZM30.1901 29.6767C29.6378 29.6767 29.1901 30.1244 29.1901 30.6767C29.1901 31.229 29.6378 31.6767 30.1901 31.6767V29.6767ZM30.6776 31.6767C31.2299 31.6767 31.6776 31.229 31.6776 30.6767C31.6776 30.1244 31.2299 29.6767 30.6776 29.6767V31.6767ZM41.2102 42.6234C41.6007 43.014 42.2339 43.014 42.6244 42.6234C43.0149 42.2329 43.0149 41.5998 42.6244 41.2092L41.2102 42.6234ZM25.2911 31.7901L31.7911 25.2901L30.3769 23.8759L23.8769 30.3759L25.2911 31.7901ZM24.884 25.233C24.884 25.0397 25.0407 24.883 25.234 24.883V26.883C26.1453 26.883 26.884 26.1443 26.884 25.233H24.884ZM25.234 24.883C25.4273 24.883 25.584 25.0397 25.584 25.233H23.584C23.584 26.1443 24.3227 26.883 25.234 26.883V24.883ZM25.584 25.233C25.584 25.4263 25.4273 25.583 25.234 25.583V23.583C24.3227 23.583 23.584 24.3217 23.584 25.233H25.584ZM25.234 25.583C25.0407 25.583 24.884 25.4263 24.884 25.233H26.884C26.884 24.3217 26.1453 23.583 25.234 23.583V25.583ZM24.9901 25.9892H25.4776V23.9892H24.9901V25.9892ZM24.9901 26.4767H25.4776V24.4767H24.9901V26.4767ZM30.084 30.433C30.084 30.2397 30.2407 30.083 30.434 30.083V32.083C31.3453 32.083 32.084 31.3443 32.084 30.433H30.084ZM30.434 30.083C30.6273 30.083 30.784 30.2397 30.784 30.433H28.784C28.784 31.3443 29.5227 32.083 30.434 32.083V30.083ZM30.784 30.433C30.784 30.6263 30.6273 30.783 30.434 30.783V28.783C29.5227 28.783 28.784 29.5217 28.784 30.433H30.784ZM30.434 30.783C30.2407 30.783 30.084 30.6263 30.084 30.433H32.084C32.084 29.5217 31.3453 28.783 30.434 28.783V30.783ZM30.1901 31.1892H30.6776V29.1892H30.1901V31.1892ZM30.1901 31.6767H30.6776V29.6767H30.1901V31.6767ZM36.7114 27.8967C36.7114 32.7644 32.7654 36.7105 27.8977 36.7105V38.7105C33.87 38.7105 38.7114 33.869 38.7114 27.8967H36.7114ZM27.8977 36.7105C23.03 36.7105 19.084 32.7644 19.084 27.8967H17.084C17.084 33.869 21.9255 38.7105 27.8977 38.7105V36.7105ZM19.084 27.8967C19.084 23.029 23.03 19.083 27.8977 19.083V17.083C21.9255 17.083 17.084 21.9245 17.084 27.8967H19.084ZM27.8977 19.083C32.7654 19.083 36.7114 23.029 36.7114 27.8967H38.7114C38.7114 21.9245 33.87 17.083 27.8977 17.083V19.083ZM34.2004 35.6136L41.2102 42.6234L42.6244 41.2092L35.6146 34.1994L34.2004 35.6136Z" fill="white"/>
</svg>
