<svg width="60" height="61" viewBox="0 0 60 61" fill="none" xmlns="http://www.w3.org/2000/svg">
<g id="Group 24">
<circle id="Ellipse 5" cx="30" cy="30.5" r="30" fill="#1A7BFF"/>
<path id="Vector" d="M30.3407 19.6438C29.7853 19.6438 29.2527 19.8648 28.8599 20.2583C28.4672 20.6517 28.2466 21.1853 28.2466 21.7417C28.2466 22.2981 28.4672 22.8317 28.8599 23.2251C29.2527 23.6186 29.7853 23.8396 30.3407 23.8396C30.8961 23.8396 31.4288 23.6186 31.8215 23.2251C32.2143 22.8317 32.4349 22.2981 32.4349 21.7417C32.4349 21.1853 32.2143 20.6517 31.8215 20.2583C31.4288 19.8648 30.8961 19.6438 30.3407 19.6438ZM26.1524 21.7417C26.1524 20.6289 26.5937 19.5617 27.3791 18.7748C28.1646 17.988 29.2299 17.5459 30.3407 17.5459C31.4515 17.5459 32.5169 17.988 33.3023 18.7748C34.0878 19.5617 34.529 20.6289 34.529 21.7417C34.529 22.8545 34.0878 23.9217 33.3023 24.7086C32.5169 25.4955 31.4515 25.9375 30.3407 25.9375C29.2299 25.9375 28.1646 25.4955 27.3791 24.7086C26.5937 23.9217 26.1524 22.8545 26.1524 21.7417ZM40.288 20.6928C39.8714 20.6928 39.4719 20.8585 39.1774 21.1536C38.8828 21.4487 38.7174 21.8489 38.7174 22.2662C38.7174 22.6835 38.8828 23.0837 39.1774 23.3788C39.4719 23.6738 39.8714 23.8396 40.288 23.8396C40.7045 23.8396 41.104 23.6738 41.3986 23.3788C41.6931 23.0837 41.8586 22.6835 41.8586 22.2662C41.8586 21.8489 41.6931 21.4487 41.3986 21.1536C41.104 20.8585 40.7045 20.6928 40.288 20.6928ZM36.6232 22.2662C36.6232 21.7841 36.718 21.3066 36.9022 20.8612C37.0863 20.4158 37.3563 20.0111 37.6966 19.6702C38.0369 19.3292 38.4409 19.0588 38.8855 18.8743C39.3302 18.6898 39.8067 18.5948 40.288 18.5948C40.7692 18.5948 41.2458 18.6898 41.6904 18.8743C42.135 19.0588 42.5391 19.3292 42.8794 19.6702C43.2197 20.0111 43.4896 20.4158 43.6738 20.8612C43.858 21.3066 43.9527 21.7841 43.9527 22.2662C43.9527 23.2399 43.5666 24.1737 42.8794 24.8622C42.1921 25.5507 41.2599 25.9375 40.288 25.9375C39.316 25.9375 38.3839 25.5507 37.6966 24.8622C37.0093 24.1737 36.6232 23.2399 36.6232 22.2662ZM18.8229 22.2662C18.8229 21.8489 18.9883 21.4487 19.2829 21.1536C19.5774 20.8585 19.9769 20.6928 20.3935 20.6928C20.81 20.6928 21.2095 20.8585 21.5041 21.1536C21.7986 21.4487 21.9641 21.8489 21.9641 22.2662C21.9641 22.6835 21.7986 23.0837 21.5041 23.3788C21.2095 23.6738 20.81 23.8396 20.3935 23.8396C19.9769 23.8396 19.5774 23.6738 19.2829 23.3788C18.9883 23.0837 18.8229 22.6835 18.8229 22.2662ZM20.3935 18.5948C19.4215 18.5948 18.4894 18.9816 17.8021 19.6702C17.1148 20.3587 16.7287 21.2925 16.7287 22.2662C16.7287 23.2399 17.1148 24.1737 17.8021 24.8622C18.4894 25.5507 19.4215 25.9375 20.3935 25.9375C21.3654 25.9375 22.2976 25.5507 22.9849 24.8622C23.6722 24.1737 24.0583 23.2399 24.0583 22.2662C24.0583 21.2925 23.6722 20.3587 22.9849 19.6702C22.2976 18.9816 21.3654 18.5948 20.3935 18.5948ZM22.6458 40.1036C22.1722 40.4163 21.623 40.5947 21.0563 40.6199C20.4897 40.6451 19.9268 40.5161 19.4275 40.2467C18.9281 39.9773 18.5109 39.5774 18.2201 39.0896C17.9293 38.6018 17.7758 38.0442 17.7758 37.476V30.6578C17.7758 30.5187 17.831 30.3853 17.9291 30.2869C18.0273 30.1886 18.1605 30.1333 18.2993 30.1333H22.5201C22.6156 29.3653 22.9223 28.639 23.4059 28.0354H18.2993C17.6051 28.0354 16.9393 28.3117 16.4483 28.8035C15.9574 29.2953 15.6816 29.9623 15.6816 30.6578V37.476C15.6814 38.3792 15.9139 39.2672 16.3568 40.0539C16.7997 40.8406 17.4379 41.4994 18.2096 41.9665C18.9813 42.4336 19.8603 42.6931 20.7615 42.72C21.6627 42.7468 22.5556 42.54 23.3536 42.1197C23.0265 41.4833 22.7884 40.8049 22.6458 40.1036ZM37.3279 42.1197C38.1259 42.54 39.0187 42.7468 39.9199 42.72C40.8212 42.6931 41.7002 42.4336 42.4719 41.9665C43.2435 41.4994 43.8817 40.8406 44.3246 40.0539C44.7675 39.2672 45.0001 38.3792 44.9998 37.476V30.6578C44.9998 29.9623 44.724 29.2953 44.2331 28.8035C43.7422 28.3117 43.0764 28.0354 42.3821 28.0354H37.2755C37.7587 28.6392 38.0654 29.3654 38.1614 30.1333H42.3821C42.521 30.1333 42.6541 30.1886 42.7523 30.2869C42.8505 30.3853 42.9057 30.5187 42.9057 30.6578V37.476C42.9057 38.0442 42.7522 38.6018 42.4614 39.0896C42.1706 39.5774 41.7533 39.9773 41.254 40.2467C40.7546 40.5161 40.1918 40.6451 39.6251 40.6199C39.0585 40.5947 38.5093 40.4163 38.0357 40.1036C37.8931 40.8049 37.6549 41.4833 37.3279 42.1197ZM26.676 28.0354C25.9817 28.0354 25.3159 28.3117 24.825 28.8035C24.3341 29.2953 24.0583 29.9623 24.0583 30.6578V38.5249C24.0583 40.1941 24.7202 41.7949 25.8984 42.9752C27.0765 44.1555 28.6745 44.8186 30.3407 44.8186C32.0069 44.8186 33.6049 44.1555 34.7831 42.9752C35.9613 41.7949 36.6232 40.1941 36.6232 38.5249V30.6578C36.6232 29.9623 36.3474 29.2953 35.8565 28.8035C35.3656 28.3117 34.6998 28.0354 34.0055 28.0354H26.676ZM26.1524 30.6578C26.1524 30.5187 26.2076 30.3853 26.3058 30.2869C26.4039 30.1886 26.5371 30.1333 26.676 30.1333H34.0055C34.1444 30.1333 34.2775 30.1886 34.3757 30.2869C34.4739 30.3853 34.529 30.5187 34.529 30.6578V38.5249C34.529 39.6377 34.0878 40.7049 33.3023 41.4918C32.5169 42.2787 31.4515 42.7207 30.3407 42.7207C29.2299 42.7207 28.1646 42.2787 27.3791 41.4918C26.5937 40.7049 26.1524 39.6377 26.1524 38.5249V30.6578Z" fill="white"/>
</g>
</svg>
