<svg width="571" height="463" viewBox="0 0 571 463" fill="none" xmlns="http://www.w3.org/2000/svg">
<g clip-path="url(#clip0_199_312)">
<path d="M401.269 3.9768L73.215 147.784C44.5838 160.337 40.2658 199.193 65.4518 217.719L353.955 430.057C379.134 448.589 414.931 432.899 418.377 401.828L457.928 45.6893C461.38 14.5921 429.9 -8.57504 401.269 3.9768Z" fill="#74ABEC" fill-opacity="0.55"/>
<path d="M508.503 445.937H29.0442C28.6962 445.937 28.3624 445.798 28.1162 445.552C27.87 445.305 27.7318 444.972 27.7318 444.623C27.7318 444.275 27.87 443.942 28.1162 443.695C28.3624 443.449 28.6962 443.311 29.0442 443.311H508.503C508.851 443.311 509.185 443.449 509.432 443.695C509.677 443.942 509.816 444.275 509.816 444.623C509.816 444.972 509.677 445.305 509.432 445.552C509.185 445.798 508.851 445.937 508.503 445.937Z" fill="black"/>
<path d="M328.637 184.915L345.004 130.808C345.232 130.052 345.624 129.357 346.152 128.77C346.68 128.184 347.331 127.722 348.057 127.415C348.785 127.11 349.57 126.968 350.358 127.001C351.146 127.033 351.917 127.239 352.617 127.604L370.282 136.795C371.046 137.193 371.703 137.769 372.197 138.473C372.691 139.179 373.008 139.993 373.121 140.847C373.235 141.701 373.142 142.57 372.848 143.38C372.554 144.189 372.071 144.916 371.437 145.5L328.637 184.915Z" fill="#FB6D6D"/>
<path d="M324.446 182.795L371.143 153.713C371.868 153.262 372.685 152.979 373.534 152.888C374.383 152.796 375.241 152.895 376.046 153.18C376.851 153.466 377.581 153.929 378.183 154.534C378.785 155.14 379.243 155.873 379.523 156.68L385.718 174.622C386.012 175.473 386.1 176.383 385.973 177.276C385.848 178.168 385.512 179.018 384.994 179.755C384.475 180.492 383.789 181.096 382.992 181.515C382.196 181.936 381.31 182.16 380.409 182.171L324.446 182.795Z" fill="#FB6D6D"/>
<path d="M258.415 282.914C280.157 282.914 297.783 265.282 297.783 243.533C297.783 221.782 280.157 204.15 258.415 204.15C236.673 204.15 219.048 221.782 219.048 243.533C219.048 265.282 236.673 282.914 258.415 282.914Z" fill="black"/>
<path d="M173.691 72.3359H19.0971C9.2754 72.3359 1.31335 80.301 1.31335 90.1265V158.597C1.31335 168.423 9.2754 176.388 19.0971 176.388H173.691C183.512 176.388 191.474 168.423 191.474 158.597V90.1265C191.474 80.301 183.512 72.3359 173.691 72.3359Z" fill="white"/>
<path d="M56.822 111.178C61.7244 111.178 65.6985 107.486 65.6985 102.933C65.6985 98.3787 61.7244 94.687 56.822 94.687C51.9197 94.687 47.9456 98.3787 47.9456 102.933C47.9456 107.486 51.9197 111.178 56.822 111.178Z" fill="#C7B8F8"/>
<path d="M46.6379 113.109C52.9577 113.104 59.2748 113.121 65.5919 113.067C65.7178 116.288 65.673 119.512 65.6925 122.733C65.6954 125.841 65.6841 128.95 65.6982 132.062C59.3419 132.069 52.9885 132.056 46.6323 132.067C46.6575 125.748 46.6491 119.43 46.6379 113.109Z" fill="#C7B8F8"/>
<path d="M25.1201 113.154C27.7152 113.241 30.3046 113.757 32.6872 114.805C35.2711 115.974 37.5921 117.72 39.4517 119.863C41.5323 122.274 42.9696 125.226 43.6267 128.346C43.9008 129.568 43.9511 130.82 44.0378 132.064C37.7347 132.066 31.4316 132.056 25.1285 132.069C25.1341 125.766 25.148 119.458 25.1201 113.154Z" fill="#C7B8F8"/>
<path d="M25.1617 134.721C31.4592 134.74 37.7594 134.749 44.057 134.743C44.015 138.831 44.0738 142.924 44.0598 147.012C44.0374 149.227 44.1017 151.445 43.9954 153.659C39.3562 153.291 34.8205 151.37 31.4536 148.126C30.0638 146.796 28.8585 145.273 27.8826 143.614C26.2774 140.927 25.4134 137.838 25.1617 134.721Z" fill="#C7B8F8"/>
<path d="M46.6779 134.749C52.9475 134.76 59.2198 134.696 65.4894 134.769C65.3999 135.763 65.2741 136.754 65.0923 137.734C64.4883 140.2 63.5347 142.595 62.1085 144.698C61.1661 146.192 59.9133 147.444 58.6466 148.657C57.7154 149.447 56.7366 150.191 55.674 150.794C54.933 151.168 54.2507 151.662 53.4676 151.951C51.3172 152.931 48.9766 153.423 46.636 153.64C46.7031 147.346 46.6472 141.048 46.6779 134.749Z" fill="#C7B8F8"/>
<path d="M173.69 177.7H19.1028C14.038 177.695 9.18215 175.68 5.60082 172.097C2.01948 168.514 0.00521157 163.657 0 158.59V90.1329C0.00521157 85.0662 2.01948 80.2085 5.60082 76.6258C9.18215 73.0431 14.038 71.028 19.1028 71.0228H173.69C178.754 71.0298 183.608 73.0456 187.188 76.6281C190.768 80.2106 192.781 85.0673 192.786 90.1329V158.59C192.781 163.656 190.768 168.512 187.188 172.095C183.608 175.677 178.754 177.693 173.69 177.7ZM19.1028 73.6488C14.7336 73.6523 10.5445 75.3901 7.455 78.4806C4.36555 81.5713 2.62839 85.7621 2.62491 90.1329V158.59C2.62839 162.961 4.36555 167.151 7.455 170.242C10.5445 173.333 14.7336 175.071 19.1028 175.074H173.69C178.058 175.069 182.246 173.331 185.333 170.241C188.421 167.15 190.158 162.96 190.161 158.59V90.1329C190.158 85.7632 188.421 81.5734 185.333 78.483C182.246 75.3926 178.058 73.654 173.69 73.6488H19.1028Z" fill="black"/>
<path d="M166.182 100.177H95.0799C92.2566 100.177 89.9679 102.467 89.9679 105.291V109.262C89.9679 112.087 92.2566 114.377 95.0799 114.377H166.182C169.005 114.377 171.294 112.087 171.294 109.262V105.291C171.294 102.467 169.005 100.177 166.182 100.177Z" fill="#FFBB45"/>
<path d="M167.902 132.351H93.3674C93.0193 132.351 92.6855 132.212 92.4394 131.966C92.1932 131.72 92.0549 131.386 92.0549 131.038C92.0549 130.689 92.1932 130.356 92.4394 130.109C92.6855 129.863 93.0193 129.725 93.3674 129.725H167.902C168.25 129.725 168.583 129.863 168.83 130.109C169.076 130.356 169.214 130.689 169.214 131.038C169.214 131.386 169.076 131.72 168.83 131.966C168.583 132.212 168.25 132.351 167.902 132.351Z" fill="black"/>
<path d="M157.409 149.223H93.3674C93.0193 149.223 92.6855 149.085 92.4394 148.838C92.1932 148.592 92.0549 148.258 92.0549 147.91C92.0549 147.561 92.1932 147.228 92.4394 146.981C92.6855 146.735 93.0193 146.597 93.3674 146.597H157.409C157.756 146.597 158.091 146.735 158.337 146.981C158.582 147.228 158.721 147.561 158.721 147.91C158.721 148.258 158.582 148.592 158.337 148.838C158.091 149.085 157.756 149.223 157.409 149.223Z" fill="black"/>
<path d="M376.142 316.893C398.873 316.893 417.3 298.576 417.3 275.981C417.3 253.386 398.873 235.069 376.142 235.069C353.411 235.069 334.984 253.386 334.984 275.981C334.984 298.576 353.411 316.893 376.142 316.893Z" fill="black"/>
<path d="M334.984 261.696C357.716 261.696 376.143 243.38 376.143 220.785C376.143 198.19 357.716 179.873 334.984 179.873C312.253 179.873 293.825 198.19 293.825 220.785C293.825 243.38 312.253 261.696 334.984 261.696Z" fill="black"/>
<path d="M298.825 214.214H273.81C267.652 214.214 261.555 213.001 255.866 210.642C250.176 208.285 245.007 204.83 240.654 200.474C236.299 196.116 232.846 190.946 230.49 185.254C228.134 179.562 226.922 173.462 226.923 167.302V135.292C226.931 127.934 229.86 120.88 235.066 115.68C240.27 110.48 247.325 107.56 254.681 107.562H288.457C299.903 107.562 310.878 112.111 318.972 120.206C327.064 128.303 331.611 139.283 331.611 150.732V181.475C331.607 185.778 330.757 190.039 329.107 194.013C327.457 197.988 325.041 201.598 321.997 204.638C318.952 207.678 315.339 210.089 311.363 211.732C307.387 213.375 303.128 214.218 298.825 214.214Z" fill="black"/>
<path d="M237.271 118.525C237.271 118.525 222.427 120.717 218.529 152.124C218.068 155.96 216.413 159.554 213.798 162.398L211.409 164.984C210.807 165.635 210.464 166.484 210.446 167.372C210.428 168.258 210.736 169.121 211.311 169.796L214.546 173.604L212.912 193.692C212.912 193.692 209.631 215.1 234.823 214.437H250.849V236.646H301.214V198.471C301.214 198.471 312.692 196.502 314.778 185.197C315.305 182.371 315.185 179.463 314.429 176.69C313.672 173.917 312.298 171.351 310.408 169.186C306.648 164.925 300.02 161.308 289.107 166.402C289.113 166.402 245.763 175.107 237.271 118.525Z" fill="white"/>
<path d="M297.783 190.048C296.744 190.048 295.73 189.74 294.866 189.163C294.003 188.586 293.33 187.766 292.933 186.807C292.536 185.847 292.431 184.791 292.634 183.772C292.836 182.753 293.336 181.818 294.071 181.083C294.805 180.348 295.74 179.849 296.759 179.646C297.777 179.443 298.833 179.547 299.791 179.944C300.751 180.342 301.571 181.015 302.148 181.878C302.725 182.742 303.033 183.757 303.033 184.796C303.033 186.189 302.479 187.525 301.495 188.51C300.51 189.495 299.175 190.048 297.783 190.048ZM297.783 182.132C297.264 182.132 296.756 182.285 296.325 182.573C295.893 182.862 295.557 183.272 295.358 183.753C295.159 184.232 295.107 184.76 295.208 185.269C295.309 185.778 295.56 186.247 295.927 186.614C296.294 186.981 296.762 187.231 297.271 187.333C297.78 187.434 298.307 187.382 298.788 187.183C299.267 186.985 299.676 186.648 299.965 186.216C300.254 185.784 300.408 185.277 300.408 184.757C300.408 184.061 300.131 183.393 299.639 182.9C299.147 182.408 298.479 182.132 297.783 182.132Z" fill="black"/>
<path d="M293.826 186.09C293.484 186.091 293.157 185.957 292.911 185.719C292.667 185.482 292.524 185.158 292.513 184.817C292.422 182.106 293.229 179.913 294.922 178.297C298.282 175.094 303.893 175.501 304.109 175.521C304.457 175.548 304.781 175.712 305.008 175.977C305.235 176.243 305.347 176.587 305.32 176.936C305.293 177.284 305.129 177.606 304.864 177.834C304.598 178.061 304.254 178.174 303.905 178.147C303.86 178.147 299.207 177.818 296.687 180.221C295.552 181.311 295.033 182.788 295.099 184.744C295.106 184.917 295.078 185.089 295.017 185.252C294.956 185.414 294.863 185.562 294.745 185.688C294.626 185.815 294.484 185.917 294.327 185.987C294.169 186.059 293.999 186.098 293.826 186.103V186.09Z" fill="black"/>
<path d="M242.555 166.363C244.269 166.363 245.659 164.973 245.659 163.257C245.659 161.543 244.269 160.153 242.555 160.153C240.841 160.153 239.451 161.543 239.451 163.257C239.451 164.973 240.841 166.363 242.555 166.363Z" fill="black"/>
<path d="M231.654 192.55C230.39 192.555 229.138 192.304 227.972 191.814C224.199 190.219 221.666 186.011 221.673 181.351C221.674 180.959 221.761 180.574 221.927 180.22C222.094 179.866 222.336 179.553 222.636 179.303C222.936 179.053 223.288 178.871 223.665 178.771C224.043 178.671 224.438 178.655 224.823 178.725L240.474 181.521C240.874 181.595 241.251 181.758 241.58 182C241.907 182.242 242.176 182.554 242.365 182.914C242.555 183.274 242.66 183.673 242.674 184.08C242.687 184.486 242.608 184.891 242.443 185.263C240.434 189.727 235.992 192.55 231.654 192.55ZM224.35 181.278C224.343 181.297 224.343 181.318 224.35 181.337C224.35 184.961 226.233 188.191 229.049 189.385C233.367 191.21 238.34 188.073 240.106 184.133L240.067 184.055L224.409 181.259L224.35 181.278Z" fill="black"/>
<path d="M250.435 214.463H274.499C274.712 214.465 274.919 214.539 275.083 214.675C275.248 214.81 275.361 214.999 275.405 215.207C275.447 215.416 275.417 215.634 275.32 215.823C275.222 216.012 275.062 216.163 274.866 216.249L250.435 226.687V214.463Z" fill="black"/>
<path d="M250.435 236.134C250.43 234.936 250.81 233.769 251.519 232.804C252.228 231.839 253.228 231.129 254.372 230.776C255.248 230.511 256.147 230.332 257.056 230.239C260.494 229.92 263.937 230.773 266.828 232.661C269.242 230.79 272.207 229.771 275.26 229.764C278.314 229.757 281.284 230.762 283.706 232.621C286.15 230.98 289.006 230.056 291.948 229.956C293.795 229.905 295.634 230.186 297.382 230.783C298.471 231.164 299.414 231.874 300.08 232.815C300.747 233.756 301.105 234.881 301.103 236.035V247.523H250.435V236.134Z" fill="#C7B8F8"/>
<path d="M445.8 401.861L156.24 401.619L169.076 284.063C170.293 272.923 175.572 262.621 183.903 255.13C192.235 247.637 203.035 243.48 214.238 243.453L333.94 243.152C347.906 243.118 361.564 247.258 373.16 255.042C384.758 262.826 393.767 273.899 399.031 286.84C423.312 342.693 440.878 383.473 442.794 388.311C443.706 390.683 444.437 393.122 444.98 395.605C445.406 397.667 445.68 399.758 445.8 401.861Z" fill="#C7B8F8"/>
<path d="M358.193 401.71H209.768V301.078H321.779C323.31 301.078 324.8 301.568 326.031 302.477C327.262 303.385 328.172 304.664 328.624 306.126L358.193 401.71Z" fill="black"/>
<path d="M321.761 302.392C321.449 302.396 321.144 302.288 320.904 302.089C320.663 301.889 320.502 301.61 320.449 301.302C320.081 299.129 311.636 248.055 329.255 241.917C329.584 241.802 329.945 241.822 330.259 241.974C330.573 242.125 330.814 242.396 330.929 242.724C331.044 243.053 331.022 243.414 330.872 243.728C330.72 244.043 330.451 244.283 330.121 244.398C317.213 248.889 320.632 286.682 323.041 300.855C323.07 301.025 323.065 301.2 323.027 301.368C322.988 301.536 322.917 301.696 322.817 301.837C322.717 301.978 322.591 302.098 322.444 302.19C322.298 302.281 322.135 302.343 321.965 302.371C321.897 302.384 321.83 302.39 321.761 302.392Z" fill="black"/>
<path d="M213.05 302.392C212.754 302.392 212.466 302.292 212.234 302.109C212.001 301.925 211.838 301.669 211.771 301.381C208.344 287.09 208.251 272.201 211.501 257.87C212.68 252.766 214.286 247.773 216.305 242.941C216.445 242.63 216.702 242.384 217.02 242.259C217.338 242.134 217.691 242.137 218.007 242.268C218.322 242.4 218.574 242.65 218.709 242.964C218.843 243.278 218.85 243.633 218.726 243.952C216.767 248.648 215.206 253.502 214.06 258.46C210.899 272.401 210.991 286.884 214.33 300.784C214.369 300.952 214.373 301.126 214.345 301.296C214.317 301.466 214.256 301.628 214.164 301.775C214.073 301.921 213.953 302.049 213.813 302.148C213.672 302.249 213.514 302.32 213.345 302.359C213.249 302.382 213.149 302.394 213.05 302.392Z" fill="black"/>
<path d="M194.29 220.292C192.925 218.527 191.359 216.928 189.624 215.526L189.552 215.461C186.306 212.579 183.487 209.251 181.178 205.574C179.131 202.292 177.897 198.931 175.889 193.757C174.885 191.184 174.176 189.162 173.783 188.033C169.104 174.589 166.032 162.535 161.282 160.802C160.566 160.56 159.823 160.407 159.07 160.349C158.067 160.255 157.056 160.364 156.095 160.666C155.136 160.97 154.246 161.463 153.479 162.115C152.97 162.55 152.528 163.056 152.166 163.619C150.329 166.54 151.242 170.774 153.125 179.118C153.427 180.432 153.696 181.514 153.872 182.236L157.686 199.725C157.686 199.725 148.314 201.845 148.84 209.277C148.84 209.277 140.177 204.143 136.818 214.226C136.818 214.226 125.859 215.113 129.041 227.139C129.041 227.139 133.457 243.237 140 243.768C140 243.768 138.766 268.884 159.628 279.875L193.752 275.58L195.996 265.852C201.902 240.249 199.237 231.945 198.247 228.873C197.289 225.859 195.96 222.977 194.29 220.292Z" fill="white"/>
<path d="M164.051 265.635C163.843 265.636 163.639 265.588 163.455 265.494C163.269 265.4 163.11 265.264 162.987 265.097C159.047 259.746 156.602 253.442 155.9 246.834C154.41 231.735 163.033 220.575 166.564 216.735L163.828 209.67C163.558 208.955 163.21 208.043 162.824 207.137C160.651 202.089 159.673 197.848 159.922 194.526C159.993 193.522 160.266 192.544 160.725 191.649C161.184 190.754 161.82 189.962 162.594 189.32C163.351 188.688 164.23 188.216 165.174 187.934C166.12 187.652 167.113 187.565 168.093 187.679C174.038 188.335 177.595 195.137 177.746 195.419C177.825 195.572 177.874 195.74 177.888 195.912C177.903 196.084 177.883 196.257 177.831 196.422C177.778 196.586 177.694 196.739 177.583 196.871C177.471 197.003 177.334 197.112 177.182 197.191C177.028 197.271 176.861 197.319 176.688 197.333C176.516 197.348 176.343 197.329 176.179 197.275C176.014 197.223 175.862 197.139 175.73 197.028C175.597 196.916 175.489 196.78 175.41 196.627C175.41 196.567 172.345 190.79 167.804 190.291C167.174 190.218 166.536 190.273 165.928 190.453C165.319 190.633 164.754 190.936 164.267 191.342C163.766 191.759 163.354 192.274 163.058 192.856C162.761 193.436 162.585 194.071 162.541 194.723C162.324 197.618 163.231 201.445 165.231 206.1C165.645 207.051 166.006 208.01 166.282 208.725L169.615 217.325L169.031 217.929C166.19 220.877 157.042 231.649 158.531 246.564C159.178 252.703 161.443 258.559 165.094 263.535C165.298 263.815 165.384 264.165 165.331 264.509C165.278 264.852 165.091 265.16 164.812 265.366C164.593 265.534 164.326 265.628 164.051 265.635Z" fill="black"/>
<path d="M238.388 395.296C229.501 394.71 220.582 395.77 212.079 398.421C180.442 408.393 166.406 437.618 163.426 444.236L238.388 444.624V395.296Z" fill="white"/>
<path d="M239.698 445.943L161.398 445.536L162.225 443.698C167.119 432.854 181.728 406.613 211.684 397.167C220.339 394.467 229.418 393.387 238.464 393.983L239.698 394.062V445.943ZM165.479 442.936L237.073 443.305V396.537C228.751 396.131 220.422 397.2 212.472 399.695C185.1 408.301 170.945 431.533 165.479 442.936Z" fill="black"/>
<path d="M152.31 247.392C151.028 247.404 149.76 247.126 148.602 246.578C147.16 245.87 145.936 244.784 145.065 243.434C144.616 243.983 144.053 244.43 143.418 244.746C142.212 245.317 140.831 245.401 139.565 244.976C139.404 244.917 139.255 244.826 139.128 244.709C139.001 244.593 138.898 244.452 138.825 244.297C138.752 244.14 138.711 243.971 138.704 243.799C138.696 243.626 138.723 243.454 138.782 243.292C138.841 243.13 138.931 242.981 139.048 242.854C139.165 242.727 139.305 242.624 139.461 242.551C139.617 242.478 139.786 242.437 139.959 242.429C140.131 242.422 140.303 242.449 140.465 242.508C141.064 242.688 141.707 242.643 142.276 242.383C142.673 242.128 143.015 241.795 143.281 241.407C143.549 241.018 143.735 240.58 143.831 240.118L145.144 235.844L146.371 240.138C146.371 240.138 147.244 243.006 149.777 244.201C151.575 245.055 153.859 244.904 156.562 243.761C156.722 243.686 156.895 243.644 157.071 243.638C157.248 243.631 157.424 243.66 157.589 243.723C157.754 243.786 157.905 243.882 158.032 244.005C158.159 244.128 158.26 244.275 158.329 244.437C158.398 244.599 158.434 244.774 158.434 244.951C158.433 245.128 158.397 245.303 158.327 245.465C158.258 245.628 158.156 245.775 158.03 245.897C157.902 246.019 157.751 246.115 157.585 246.178C155.925 246.931 154.132 247.343 152.31 247.392Z" fill="black"/>
<path d="M145.085 241.825C144.807 241.824 144.535 241.734 144.311 241.569C144.087 241.404 143.922 241.172 143.838 240.906L135.557 214.608C135.452 214.275 135.484 213.915 135.645 213.606C135.806 213.296 136.083 213.064 136.416 212.96C136.749 212.856 137.108 212.888 137.417 213.049C137.727 213.209 137.959 213.487 138.063 213.82L146.312 240.118C146.364 240.283 146.382 240.456 146.368 240.628C146.353 240.8 146.303 240.967 146.224 241.121C146.144 241.273 146.035 241.41 145.902 241.52C145.77 241.631 145.617 241.714 145.452 241.766C145.333 241.803 145.21 241.822 145.085 241.825Z" fill="black"/>
<path d="M158.077 236.383C157.807 236.382 157.543 236.298 157.323 236.141C157.102 235.986 156.934 235.764 156.844 235.51L147.624 209.704C147.566 209.541 147.54 209.368 147.548 209.196C147.557 209.024 147.599 208.855 147.673 208.699C147.747 208.543 147.851 208.403 147.978 208.287C148.107 208.171 148.255 208.081 148.418 208.023C148.58 207.965 148.753 207.939 148.925 207.948C149.098 207.956 149.266 207.998 149.423 208.072C149.578 208.146 149.718 208.249 149.834 208.378C149.95 208.505 150.04 208.655 150.098 208.818L159.285 234.63C159.356 234.829 159.378 235.04 159.349 235.249C159.32 235.458 159.242 235.657 159.12 235.828C158.998 236 158.837 236.14 158.65 236.237C158.463 236.334 158.255 236.384 158.045 236.383H158.077Z" fill="black"/>
<path d="M501.698 91.2224H415.831C403.378 91.2224 393.283 101.319 393.283 113.776C393.283 126.232 403.378 136.329 415.831 136.329H501.698C514.151 136.329 524.246 126.232 524.246 113.776C524.246 101.319 514.151 91.2224 501.698 91.2224Z" fill="white"/>
<path d="M501.732 137.648H415.826C409.497 137.648 403.428 135.133 398.954 130.657C394.478 126.18 391.964 120.11 391.964 113.779C391.964 107.448 394.478 101.377 398.954 96.9006C403.428 92.4242 409.497 89.9094 415.826 89.9094H501.732C508.06 89.9094 514.129 92.4242 518.604 96.9006C523.078 101.377 525.592 107.448 525.592 113.779C525.592 120.11 523.078 126.18 518.604 130.657C514.129 135.133 508.06 137.648 501.732 137.648ZM415.826 92.5353C410.193 92.5353 404.792 94.7735 400.81 98.7571C396.827 102.741 394.589 108.145 394.589 113.779C394.589 119.413 396.827 124.817 400.81 128.801C404.792 132.785 410.193 135.022 415.826 135.022H501.732C507.363 135.022 512.765 132.785 516.748 128.801C520.73 124.817 522.967 119.413 522.967 113.779C522.967 108.145 520.73 102.741 516.748 98.7571C512.765 94.7735 507.363 92.5353 501.732 92.5353H415.826Z" fill="black"/>
<path d="M423.082 121.126C427.138 121.126 430.426 117.836 430.426 113.779C430.426 109.722 427.138 106.433 423.082 106.433C419.027 106.433 415.739 109.722 415.739 113.779C415.739 117.836 419.027 121.126 423.082 121.126Z" fill="#6DC8C2"/>
<path d="M458.761 121.126C462.816 121.126 466.104 117.836 466.104 113.779C466.104 109.722 462.816 106.433 458.761 106.433C454.705 106.433 451.417 109.722 451.417 113.779C451.417 117.836 454.705 121.126 458.761 121.126Z" fill="#6DC8C2"/>
<path d="M494.441 121.126C498.496 121.126 501.784 117.836 501.784 113.779C501.784 109.722 498.496 106.433 494.441 106.433C490.385 106.433 487.097 109.722 487.097 113.779C487.097 117.836 490.385 121.126 494.441 121.126Z" fill="#6DC8C2"/>
<path d="M72.7243 214.87H31.0211C22.4824 214.87 15.5604 221.795 15.5604 230.336V272.055C15.5604 280.598 22.4824 287.523 31.0211 287.523H72.7243C81.263 287.523 88.1851 280.598 88.1851 272.055V230.336C88.1851 221.795 81.263 214.87 72.7243 214.87Z" fill="white"/>
<path d="M72.7169 288.835H31.0202C26.5727 288.829 22.3094 287.057 19.1652 283.911C16.0209 280.764 14.2523 276.499 14.2471 272.049V230.324C14.2523 225.874 16.0209 221.609 19.1652 218.462C22.3094 215.316 26.5727 213.544 31.0202 213.537H72.7169C77.1656 213.543 81.4305 215.313 84.5762 218.46C87.7218 221.607 89.4913 225.873 89.4966 230.324V272.029C89.4966 276.483 87.7294 280.755 84.5832 283.906C81.4369 287.057 77.169 288.83 72.7169 288.835ZM31.0202 216.183C27.2712 216.186 23.6766 217.677 21.0244 220.328C18.3722 222.978 16.8789 226.573 16.8719 230.324V272.029C16.8754 275.782 18.367 279.382 21.0194 282.036C23.6717 284.691 27.2683 286.184 31.0202 286.19H72.7169C76.4694 286.184 80.0667 284.691 82.7201 282.037C85.3735 279.382 86.8665 275.783 86.8717 272.029V230.324C86.8682 226.569 85.3758 222.969 82.722 220.314C80.0682 217.659 76.4699 216.167 72.7169 216.163L31.0202 216.183Z" fill="black"/>
<path d="M72.1262 239.324C71.3237 237.85 70.126 236.628 68.6678 235.798C61.9678 232.05 55.2021 234.374 51.8881 239.245C48.5282 234.315 41.6313 231.984 34.8261 235.963C33.5914 236.682 32.5594 237.702 31.8272 238.93C28.7495 244.103 29.3532 249.296 31.9388 252.992C31.9854 253.058 32.0359 253.121 32.0897 253.182V253.215C32.1423 253.288 35.4365 257.108 37.497 259.195C41.4306 263.029 45.5548 266.661 49.8538 270.08C50.4099 270.533 51.1052 270.781 51.8224 270.781C52.5397 270.781 53.2351 270.533 53.7912 270.08C57.4988 267.119 60.5109 264.552 62.7486 262.589C64.4581 261.166 66.0715 259.631 67.5785 257.995C70.794 254.443 77.8746 249.788 72.1262 239.324Z" fill="#FB6D6D"/>
<path d="M546.9 187.587H418.903C406.718 187.587 396.84 197.468 396.84 209.658V349.835C396.84 362.025 406.718 371.906 418.903 371.906H546.9C559.085 371.906 568.963 362.025 568.963 349.835V209.658C568.963 197.468 559.085 187.587 546.9 187.587Z" fill="white"/>
<path d="M546.901 373.219H418.903C412.706 373.211 406.765 370.746 402.383 366.363C398 361.978 395.536 356.034 395.529 349.835V209.658C395.536 203.458 398 197.514 402.383 193.13C406.765 188.747 412.706 186.281 418.903 186.273H546.901C553.098 186.281 559.04 188.747 563.421 193.13C567.804 197.514 570.268 203.458 570.275 209.658V349.835C570.268 356.034 567.804 361.978 563.421 366.363C559.04 370.746 553.098 373.211 546.901 373.219ZM418.903 188.899C413.403 188.906 408.129 191.095 404.239 194.988C400.349 198.879 398.161 204.154 398.154 209.658V349.835C398.161 355.338 400.349 360.614 404.239 364.505C408.129 368.397 413.403 370.586 418.903 370.593H546.901C552.401 370.586 557.676 368.397 561.565 364.505C565.455 360.614 567.643 355.338 567.65 349.835V209.658C567.645 204.154 565.457 198.877 561.567 194.986C557.678 191.094 552.402 188.905 546.901 188.899H418.903Z" fill="black"/>
<path d="M439.843 256.904H422.722C417.754 256.904 413.726 260.934 413.726 265.905V283.032C413.726 288.002 417.754 292.033 422.722 292.033H439.843C444.812 292.033 448.84 288.002 448.84 283.032V265.905C448.84 260.934 444.812 256.904 439.843 256.904Z" fill="#FFC1EB"/>
<path d="M439.843 310.229H422.722C417.754 310.229 413.726 314.259 413.726 319.23V336.358C413.726 341.328 417.754 345.358 422.722 345.358H439.843C444.812 345.358 448.84 341.328 448.84 336.358V319.23C448.84 314.259 444.812 310.229 439.843 310.229Z" fill="#FFC1EB"/>
<path d="M549.773 265.924H470.514C470.167 265.924 469.832 265.785 469.587 265.539C469.341 265.293 469.202 264.959 469.202 264.611C469.202 264.263 469.341 263.929 469.587 263.682C469.832 263.436 470.167 263.298 470.514 263.298H549.773C550.122 263.298 550.455 263.436 550.702 263.682C550.948 263.929 551.086 264.263 551.086 264.611C551.086 264.959 550.948 265.293 550.702 265.539C550.455 265.785 550.122 265.924 549.773 265.924Z" fill="black"/>
<path d="M519.37 285.257H470.514C470.167 285.257 469.832 285.119 469.587 284.872C469.341 284.626 469.202 284.293 469.202 283.945C469.202 283.596 469.341 283.262 469.587 283.016C469.832 282.769 470.167 282.631 470.514 282.631H519.37C519.719 282.631 520.052 282.769 520.299 283.016C520.545 283.262 520.683 283.596 520.683 283.945C520.683 284.293 520.545 284.626 520.299 284.872C520.052 285.119 519.719 285.257 519.37 285.257Z" fill="black"/>
<path d="M549.773 319.44H470.514C470.167 319.44 469.832 319.302 469.587 319.056C469.341 318.809 469.202 318.476 469.202 318.127C469.202 317.779 469.341 317.446 469.587 317.199C469.832 316.953 470.167 316.814 470.514 316.814H549.773C550.122 316.814 550.455 316.953 550.702 317.199C550.948 317.446 551.086 317.779 551.086 318.127C551.086 318.476 550.948 318.809 550.702 319.056C550.455 319.302 550.122 319.44 549.773 319.44Z" fill="black"/>
<path d="M519.37 338.773H470.514C470.167 338.773 469.832 338.635 469.587 338.389C469.341 338.143 469.202 337.808 469.202 337.46C469.202 337.112 469.341 336.778 469.587 336.531C469.832 336.286 470.167 336.148 470.514 336.148H519.37C519.719 336.148 520.052 336.286 520.299 336.531C520.545 336.778 520.683 337.112 520.683 337.46C520.683 337.808 520.545 338.143 520.299 338.389C520.052 338.635 519.719 338.773 519.37 338.773Z" fill="black"/>
<path d="M445.039 212.29C444.492 211.28 443.671 210.445 442.67 209.881C438.077 207.308 433.443 208.903 431.173 212.244C428.869 208.863 424.145 207.268 419.492 209.979C418.648 210.476 417.944 211.179 417.445 212.021C415.332 215.559 415.745 219.118 417.517 221.651C417.548 221.698 417.584 221.742 417.622 221.783C417.661 221.836 419.919 224.455 421.33 225.885C422.537 227.1 425.516 229.884 429.795 233.336C430.175 233.643 430.649 233.81 431.137 233.81C431.625 233.81 432.098 233.643 432.479 233.336C435.018 231.302 437.072 229.542 438.615 228.203C439.774 227.228 440.87 226.179 441.896 225.065C444.127 222.656 448.983 219.466 445.039 212.29Z" fill="#FB6D6D"/>
<path d="M389.634 458.049H247.495C245.326 458.05 243.179 457.623 241.175 456.794C239.171 455.963 237.351 454.747 235.817 453.214C234.282 451.68 233.066 449.859 232.236 447.854C231.406 445.85 230.978 443.701 230.978 441.532V414.268C230.98 404.541 234.844 395.213 241.719 388.335C248.594 381.458 257.918 377.593 267.642 377.592H421.54C427.98 377.592 434.155 380.15 438.709 384.705C443.262 389.26 445.821 395.438 445.821 401.88C445.818 409.26 444.363 416.566 441.538 423.382C438.713 430.198 434.573 436.39 429.356 441.606C424.138 446.821 417.945 450.958 411.13 453.779C404.315 456.6 397.011 458.051 389.634 458.049Z" fill="#C7B8F8"/>
<path d="M169.831 460.655C163.946 460.533 158.143 459.253 152.754 456.887C147.365 454.522 142.494 451.118 138.419 446.868C134.345 442.619 131.147 437.609 129.009 432.123C126.87 426.638 125.832 420.785 125.956 414.899L128.403 297.094C128.546 290.329 131.368 283.897 136.25 279.213C141.132 274.529 147.673 271.976 154.435 272.115L193.055 272.923C199.812 273.069 206.235 275.894 210.911 280.776C215.587 285.658 218.133 292.198 217.991 298.958L215.57 416.763C215.447 422.649 214.168 428.454 211.803 433.846C209.439 439.238 206.035 444.11 201.788 448.186C197.541 452.262 192.532 455.461 187.049 457.601C181.566 459.74 175.715 460.778 169.831 460.655Z" fill="#C7B8F8"/>
<path d="M380 377.585H344.367C344.019 377.585 343.685 377.445 343.439 377.2C343.193 376.953 343.054 376.619 343.054 376.271C343.054 375.923 343.193 375.589 343.439 375.343C343.685 375.097 344.019 374.958 344.367 374.958H380C380.348 374.958 380.682 375.097 380.928 375.343C381.174 375.589 381.312 375.923 381.312 376.271C381.312 376.619 381.174 376.953 380.928 377.2C380.682 377.445 380.348 377.585 380 377.585Z" fill="black"/>
<path d="M338.856 186.714C336.97 186.714 335.126 186.154 333.558 185.107C331.988 184.058 330.765 182.569 330.043 180.826C329.32 179.082 329.131 177.165 329.497 175.314C329.863 173.463 330.77 171.762 332.103 170.426C333.435 169.09 335.133 168.18 336.983 167.809C338.833 167.439 340.751 167.625 342.495 168.344C344.237 169.063 345.729 170.284 346.78 171.851C347.831 173.419 348.394 175.262 348.398 177.149C348.4 178.404 348.154 179.647 347.675 180.807C347.197 181.966 346.494 183.021 345.608 183.909C344.722 184.797 343.669 185.502 342.511 185.983C341.352 186.465 340.111 186.713 338.856 186.714ZM338.856 170.249C337.488 170.249 336.15 170.655 335.012 171.417C333.873 172.178 332.988 173.26 332.464 174.525C331.941 175.79 331.806 177.183 332.074 178.526C332.342 179.868 333.003 181.101 333.973 182.068C334.942 183.035 336.176 183.693 337.519 183.958C338.862 184.222 340.253 184.082 341.517 183.555C342.78 183.029 343.86 182.139 344.617 180.998C345.375 179.858 345.777 178.518 345.773 177.149C345.766 175.318 345.035 173.564 343.738 172.271C342.442 170.978 340.687 170.251 338.856 170.249Z" fill="black"/>
<path d="M218.176 302.392C217.828 302.392 217.494 302.254 217.248 302.007C217.001 301.761 216.863 301.427 216.863 301.079C216.693 274.879 195.274 274.308 194.375 274.308C194.026 274.308 193.693 274.169 193.447 273.923C193.2 273.677 193.062 273.343 193.062 272.995C193.062 272.646 193.2 272.313 193.447 272.066C193.693 271.82 194.026 271.682 194.375 271.682C194.624 271.682 219.272 272.253 219.462 301.085C219.462 301.433 219.324 301.768 219.078 302.014C218.831 302.26 218.498 302.399 218.149 302.399L218.176 302.392Z" fill="black"/>
<path d="M294.901 244.845H254.215C253.868 244.845 253.533 244.707 253.288 244.46C253.042 244.214 252.903 243.88 252.903 243.532C252.903 243.183 253.042 242.85 253.288 242.603C253.533 242.357 253.868 242.219 254.215 242.219H294.901C295.25 242.219 295.584 242.357 295.83 242.603C296.076 242.85 296.214 243.183 296.214 243.532C296.214 243.88 296.076 244.214 295.83 244.46C295.584 244.707 295.25 244.845 294.901 244.845Z" fill="black"/>
<path d="M256.342 452.948C255.994 452.948 255.661 452.81 255.415 452.563C255.168 452.317 255.03 451.984 255.03 451.635V392.079C255.03 391.731 255.168 391.397 255.415 391.151C255.661 390.905 255.994 390.767 256.342 390.767C256.691 390.767 257.024 390.905 257.271 391.151C257.517 391.397 257.655 391.731 257.655 392.079V451.635C257.655 451.984 257.517 452.317 257.271 452.563C257.024 452.81 256.691 452.948 256.342 452.948Z" fill="black"/>
<path d="M202.263 296.811H142.736C142.388 296.811 142.054 296.673 141.808 296.426C141.562 296.181 141.423 295.847 141.423 295.499C141.423 295.151 141.562 294.816 141.808 294.57C142.054 294.324 142.388 294.185 142.736 294.185H202.263C202.61 294.185 202.944 294.324 203.19 294.57C203.436 294.816 203.575 295.151 203.575 295.499C203.575 295.847 203.436 296.181 203.19 296.426C202.944 296.673 202.61 296.811 202.263 296.811Z" fill="black"/>
<path d="M59.3162 385.836C59.0472 385.837 58.7846 385.755 58.564 385.6C58.3433 385.447 58.1752 385.229 58.0825 384.977C50.4702 364.205 34.7339 347.34 34.5764 347.177C34.3371 346.923 34.2082 346.585 34.2181 346.237C34.2278 345.889 34.3756 345.558 34.6289 345.318C34.8821 345.08 35.2201 344.95 35.5684 344.96C35.9166 344.97 36.2467 345.118 36.486 345.371C36.6435 345.542 52.7473 362.781 60.5499 384.103C60.6684 384.43 60.6528 384.79 60.5064 385.105C60.36 385.42 60.0949 385.664 59.7689 385.784C59.6226 385.829 59.469 385.848 59.3162 385.836Z" fill="black"/>
<path d="M66.7452 387.976C66.3972 387.976 66.0633 387.838 65.8172 387.592C65.571 387.346 65.4327 387.011 65.4327 386.663V368.682C65.4327 368.334 65.571 368.001 65.8172 367.754C66.0633 367.508 66.3972 367.37 66.7452 367.37C67.0933 367.37 67.4271 367.508 67.6733 367.754C67.9193 368.001 68.0577 368.334 68.0577 368.682V386.663C68.0577 387.011 67.9193 387.346 67.6733 387.592C67.4271 387.838 67.0933 387.976 66.7452 387.976Z" fill="black"/>
<path d="M105.415 413.704C105.413 409.406 103.706 405.284 100.667 402.245C97.6295 399.205 93.5092 397.497 89.2127 397.495H85.6034V385.252H40.9406V397.502H37.3314C33.0343 397.502 28.9131 399.21 25.8747 402.25C22.8361 405.29 21.1291 409.412 21.1291 413.711C21.1343 418.005 22.8438 422.123 25.882 425.156C28.9201 428.191 33.0383 429.894 37.3314 429.892C35.2039 429.892 33.0972 430.31 31.1315 431.124C29.1658 431.938 27.3797 433.131 25.8751 434.636C24.3705 436.14 23.1769 437.927 22.3626 439.893C21.5482 441.859 21.1291 443.966 21.1291 446.094C21.1282 448.224 21.5468 450.332 22.3607 452.299C23.1746 454.265 24.368 456.052 25.8727 457.557C27.3774 459.063 29.1639 460.257 31.13 461.071C33.0961 461.885 35.2034 462.304 37.3314 462.303H89.2127C93.5098 462.303 97.6304 460.595 100.669 457.555C103.708 454.516 105.415 450.393 105.415 446.094C105.413 441.797 103.706 437.676 100.667 434.638C97.6285 431.599 93.5086 429.892 89.2127 429.892C93.5063 429.892 97.6246 428.188 100.662 425.153C103.701 422.117 105.41 417.999 105.415 413.704Z" fill="#6DC8C2"/>
<path d="M89.897 431.298H71.5948C71.2467 431.298 70.9129 431.159 70.6667 430.913C70.4207 430.667 70.2824 430.332 70.2824 429.984C70.2824 429.636 70.4207 429.302 70.6667 429.056C70.9129 428.81 71.2467 428.672 71.5948 428.672H89.897C90.2451 428.672 90.5789 428.81 90.8251 429.056C91.0712 429.302 91.2094 429.636 91.2094 429.984C91.2094 430.332 91.0712 430.667 90.8251 430.913C90.5789 431.159 90.2451 431.298 89.897 431.298Z" fill="black"/>
<path d="M45.943 431.206H36.3621C36.014 431.206 35.6802 431.067 35.434 430.821C35.1879 430.575 35.0497 430.241 35.0497 429.892C35.0497 429.544 35.1879 429.211 35.434 428.964C35.6802 428.718 36.014 428.58 36.3621 428.58H45.943C46.2911 428.58 46.6249 428.718 46.871 428.964C47.1172 429.211 47.2555 429.544 47.2555 429.892C47.2555 430.241 47.1172 430.575 46.871 430.821C46.6249 431.067 46.2911 431.206 45.943 431.206Z" fill="black"/>
<path d="M63.2792 389.059C75.8373 389.059 86.0175 386.937 86.0175 384.319C86.0175 381.702 75.8373 379.58 63.2792 379.58C50.7213 379.58 40.541 381.702 40.541 384.319C40.541 386.937 50.7213 389.059 63.2792 389.059Z" fill="black"/>
<path d="M66.744 368.682C72.6695 368.682 77.4733 363.877 77.4733 357.949C77.4733 352.021 72.6695 347.216 66.744 347.216C60.8183 347.216 56.0146 352.021 56.0146 357.949C56.0146 363.877 60.8183 368.682 66.744 368.682Z" fill="#FFBB45"/>
<path d="M31.6695 353.387C38.0192 353.387 43.1666 348.237 43.1666 341.885C43.1666 335.533 38.0192 330.384 31.6695 330.384C25.3198 330.384 20.1724 335.533 20.1724 341.885C20.1724 348.237 25.3198 353.387 31.6695 353.387Z" fill="#FFBB45"/>
<path d="M170.082 176.847C168.77 173.263 166.873 168.661 164.208 164.813C161.951 161.531 159.373 160.153 156.537 160.645C155.718 160.743 154.929 161.021 154.23 161.459C153.529 161.897 152.935 162.484 152.489 163.179C150.25 166.77 151.74 173.105 152.489 175.652L152.586 175.981L150.087 176.775L149.968 176.387C148.925 172.79 147.567 166.113 150.264 161.787C150.903 160.776 151.756 159.918 152.763 159.272C153.77 158.628 154.906 158.21 156.091 158.052C159.97 157.395 163.526 159.194 166.374 163.304C169.222 167.413 171.158 172.193 172.549 175.915L170.082 176.847Z" fill="black"/>
</g>
<defs>
<clipPath id="clip0_199_312">
<rect width="571" height="462" fill="white" transform="translate(0 0.5)"/>
</clipPath>
</defs>
</svg>
