<svg width="60" height="61" viewBox="0 0 60 61" fill="none" xmlns="http://www.w3.org/2000/svg">
<circle cx="30" cy="30.5" r="30" fill="#1A7BFF"/>
<path d="M30.0007 30.0002L33.2506 26.7502M41.9173 30.0002C41.9173 36.5815 36.582 41.9168 30.0007 41.9168C23.4193 41.9168 18.084 36.5815 18.084 30.0002C18.084 23.4188 23.4193 18.0835 30.0007 18.0835M37.584 30.0002C37.584 34.1883 34.1888 37.5835 30.0007 37.5835C25.8125 37.5835 22.4173 34.1883 22.4173 30.0002C22.4173 25.812 25.8125 22.4168 30.0007 22.4168M33.2506 26.2085V21.463C33.2506 21.3172 33.3094 21.1775 33.4137 21.0756L36.6637 17.8995C37.0067 17.5643 37.584 17.8073 37.584 18.2869V21.8752C37.584 22.1743 37.8265 22.4168 38.1256 22.4168H41.7139C42.1935 22.4168 42.4365 22.9941 42.1013 23.3371L38.9252 26.5871C38.8233 26.6914 38.6836 26.7502 38.5378 26.7502H33.7923C33.4932 26.7502 33.2506 26.5076 33.2506 26.2085Z" stroke="white" stroke-width="2" stroke-linecap="round"/>
</svg>
