<svg width="1038" height="742" viewBox="0 0 1038 742" fill="none" xmlns="http://www.w3.org/2000/svg">
<rect width="1038" height="742" fill="black"/>
<path d="M423.728 408.182C423.728 423.721 421.077 437.903 415.774 450.729C410.471 463.555 403.256 474.592 394.13 483.842C385.004 492.968 374.275 500.059 361.942 505.115C349.733 510.172 336.599 512.7 322.54 512.7C308.604 512.7 295.47 510.11 283.138 504.93C270.928 499.751 260.199 492.536 250.95 483.287C241.824 474.037 234.609 463.061 229.306 450.359C224.003 437.533 221.352 423.474 221.352 408.182V232.074H272.038V324.567C274.751 321.114 278.02 318.031 281.843 315.318C285.789 312.605 289.982 310.385 294.422 308.659C298.985 306.932 303.671 305.637 308.481 304.774C313.291 303.787 317.977 303.294 322.54 303.294C336.599 303.294 349.733 305.945 361.942 311.248C374.275 316.428 385.004 323.704 394.13 333.077C403.256 342.45 410.471 353.549 415.774 366.375C421.077 379.077 423.728 393.013 423.728 408.182ZM372.857 408.182C372.857 400.536 371.5 393.444 368.787 386.908C366.197 380.249 362.621 374.514 358.058 369.704C353.494 364.895 348.13 361.133 341.964 358.42C335.921 355.707 329.446 354.35 322.54 354.35C315.634 354.35 309.098 355.892 302.931 358.975C296.888 361.935 291.585 365.943 287.022 370.999C282.459 375.932 278.883 381.667 276.293 388.203C273.703 394.616 272.408 401.276 272.408 408.182C272.408 415.828 273.703 422.919 276.293 429.455C278.883 435.992 282.459 441.665 287.022 446.474C291.585 451.284 296.888 455.107 302.931 457.943C309.098 460.657 315.634 462.013 322.54 462.013C329.446 462.013 335.921 460.657 341.964 457.943C348.13 455.107 353.494 451.284 358.058 446.474C362.621 441.665 366.197 435.992 368.787 429.455C371.5 422.919 372.857 415.828 372.857 408.182ZM712.679 509H547.485L630.914 361.565H547.485V311.248H712.679L629.249 458.683H712.679V509ZM929.299 408.182C929.299 422.981 926.647 436.793 921.344 449.619C916.041 462.321 908.827 473.359 899.701 482.732C890.575 491.981 879.845 499.319 867.513 504.745C855.304 510.048 842.17 512.7 828.111 512.7C814.175 512.7 801.041 510.048 788.708 504.745C776.499 499.319 765.77 491.981 756.521 482.732C747.394 473.359 740.18 462.321 734.877 449.619C729.574 436.793 726.923 422.981 726.923 408.182C726.923 393.136 729.574 379.2 734.877 366.375C740.18 353.549 747.394 342.511 756.521 333.262C765.77 323.889 776.499 316.551 788.708 311.248C801.041 305.945 814.175 303.294 828.111 303.294C842.17 303.294 855.304 305.822 867.513 310.878C879.845 315.811 890.575 322.903 899.701 332.152C908.827 341.278 916.041 352.316 921.344 365.265C926.647 378.091 929.299 392.396 929.299 408.182ZM878.427 408.182C878.427 400.042 877.071 392.705 874.358 386.168C871.768 379.509 868.191 373.836 863.628 369.149C859.065 364.34 853.701 360.702 847.534 358.235C841.491 355.645 835.017 354.35 828.111 354.35C821.204 354.35 814.668 355.645 808.502 358.235C802.459 360.702 797.156 364.34 792.593 369.149C788.153 373.836 784.639 379.509 782.049 386.168C779.459 392.705 778.164 400.042 778.164 408.182C778.164 415.828 779.459 422.919 782.049 429.455C784.639 435.992 788.153 441.665 792.593 446.474C797.156 451.284 802.459 455.107 808.502 457.943C814.668 460.657 821.204 462.013 828.111 462.013C835.017 462.013 841.491 460.718 847.534 458.128C853.701 455.539 859.065 451.901 863.628 447.214C868.191 442.528 871.768 436.855 874.358 430.195C877.071 423.536 878.427 416.198 878.427 408.182Z" fill="white"/>
<rect x="118.892" y="313.876" width="50.0915" height="196.549" rx="25.0458" fill="#4F81FF"/>
<circle cx="143.937" cy="262.147" r="25.0457" fill="#4F81FF"/>
<path d="M500.356 317.79H451.836V514.226H500.356V317.79Z" fill="white"/>
<circle cx="475.999" cy="262.44" r="25.5937" fill="white"/>
</svg>
