<svg width="110" height="28" viewBox="0 0 110 28" fill="none" xmlns="http://www.w3.org/2000/svg">
<rect x="82.5586" y="1.00098" width="26.405" height="26.405" rx="13.2025" stroke="#0074FF"/>
<path fill-rule="evenodd" clip-rule="evenodd" d="M102.415 20.86H99.6458V16.4558C99.6458 15.3032 99.213 14.5162 98.2603 14.5162C97.5319 14.5162 97.1268 15.0474 96.9383 15.5591C96.8674 15.7427 96.8785 15.9985 96.8785 16.2544V20.86H94.1354C94.1354 20.86 94.1707 13.0585 94.1354 12.3494H96.8785V13.6852C97.0408 13.1011 97.9172 12.2677 99.3158 12.2677C101.051 12.2677 102.415 13.4917 102.415 16.1279V20.86ZM91.3616 11.2849H91.3437C90.4599 11.2849 89.8867 10.6344 89.8867 9.8097C89.8867 8.96908 90.4767 8.33203 91.3784 8.33203C92.2793 8.33203 92.8334 8.96751 92.8507 9.8072C92.8507 10.6319 92.2793 11.2849 91.3616 11.2849ZM90.2028 12.3494H92.6446V20.86H90.2028V12.3494Z" fill="#0074FF"/>
<rect x="41.6543" y="1.00098" width="26.405" height="26.405" rx="13.2025" stroke="#0074FF"/>
<path d="M61.5124 10.4117C61.0411 10.6331 60.5427 10.7802 60.0325 10.8485C60.5702 10.505 60.9722 9.96097 61.1623 9.31958C60.659 9.64104 60.1083 9.86744 59.5341 9.98899C59.182 9.58383 58.7247 9.30212 58.2219 9.18051C57.7191 9.05889 57.1939 9.10299 56.7147 9.30707C56.2355 9.51115 55.8244 9.86577 55.5348 10.3248C55.2452 10.7839 55.0906 11.3261 55.091 11.8811C55.089 12.0928 55.109 12.3042 55.1506 12.5112C54.1288 12.4572 53.1291 12.1717 52.2169 11.6732C51.3046 11.1747 50.5003 10.4745 49.8566 9.61833C49.5261 10.2267 49.4237 10.948 49.5703 11.635C49.7168 12.3219 50.1013 12.9228 50.6453 13.3148C50.2389 13.303 49.8411 13.1862 49.4854 12.9742V13.0043C49.4861 13.643 49.6911 14.2619 50.0659 14.7569C50.4407 15.2519 50.9624 15.5928 51.5432 15.7221C51.3235 15.7844 51.097 15.8151 50.8698 15.8132C50.7066 15.8163 50.5436 15.8004 50.3836 15.7659C50.5496 16.3148 50.8695 16.7948 51.2993 17.1398C51.7291 17.4849 52.2476 17.6779 52.7836 17.6925C51.8744 18.4581 50.7533 18.8734 49.5991 18.8722C49.3937 18.8736 49.1883 18.8609 48.9844 18.8341C50.1588 19.649 51.5273 20.0801 52.9244 20.0752C57.6505 20.0752 60.2345 15.8595 60.2345 12.2052C60.2345 12.0828 60.2305 11.9649 60.2251 11.8476C60.7317 11.4573 61.1679 10.9706 61.5124 10.4117Z" fill="#0074FF"/>
<rect x="0.75" y="1.00098" width="26.405" height="26.405" rx="13.2025" stroke="#0074FF"/>
<path fill-rule="evenodd" clip-rule="evenodd" d="M18.113 14.5955H16.4002V13.2253C16.4002 12.8471 16.7072 12.8827 17.0854 12.8827H17.7705V11.1699H16.4002C15.8551 11.1699 15.3323 11.3865 14.9469 11.7719C14.5614 12.1574 14.3449 12.6802 14.3449 13.2253V14.5955H12.9746V16.3084H14.3449V20.0765H16.4002V16.3084H17.4279L18.113 14.5955Z" fill="#0074FF"/>
</svg>
