<svg width="24" height="24" viewBox="0 0 24 24" fill="none" xmlns="http://www.w3.org/2000/svg">
<path d="M18.0669 20.1668L15.4742 14.3646C15.3507 14.0881 15.4778 13.764 15.7565 13.6453L21.7105 11.1088C21.9829 10.9928 22.3 11.1164 22.4 11.3951C22.6766 12.1662 22.8327 13.0047 22.8327 13.8613C22.8327 16.7318 21.2035 19.2022 18.7631 20.4287C18.5003 20.5608 18.1869 20.4353 18.0669 20.1668Z" stroke="#1B62CD" stroke-width="2"/>
<path d="M14.166 1.69126V8.97306C14.166 9.36751 14.5741 9.62969 14.9329 9.46569L21.2747 6.56659C21.5396 6.44547 21.6628 6.13542 21.5359 5.87321C20.249 3.21569 17.6992 1.36782 14.7076 1.16765C14.4091 1.14767 14.166 1.3921 14.166 1.69126Z" stroke="#1B62CD" stroke-width="2"/>
<path d="M1.16602 14.1496C1.16602 18.9361 5.04621 22.8163 9.83268 22.8163C10.8074 22.8163 11.7446 22.6554 12.6191 22.3587C12.9023 22.2626 13.0339 21.9444 12.9203 21.6678L9.87329 14.2485C9.84648 14.1832 9.83268 14.1133 9.83268 14.0427V6.02465C9.83268 5.7255 9.58951 5.48122 9.29092 5.49964C4.75682 5.7793 1.16602 9.54513 1.16602 14.1496Z" stroke="#1B62CD" stroke-width="2"/>
</svg>
