<svg width="20" height="21" viewBox="0 0 20 21" fill="none" xmlns="http://www.w3.org/2000/svg">
<g id="mail">
<path id="Icon" d="M2.49935 4.66634L8.97612 9.70383C9.57797 10.1719 10.4207 10.1719 11.0226 9.70383L17.4993 4.66634M4.33268 17.1663H15.666C16.5994 17.1663 17.0661 17.1663 17.4227 16.9847C17.7363 16.8249 17.9912 16.5699 18.151 16.2563C18.3327 15.8998 18.3327 15.4331 18.3327 14.4997V6.49967C18.3327 5.56625 18.3327 5.09954 18.151 4.74302C17.9912 4.42942 17.7363 4.17445 17.4227 4.01466C17.0661 3.83301 16.5994 3.83301 15.666 3.83301H4.33268C3.39926 3.83301 2.93255 3.83301 2.57603 4.01466C2.26243 4.17445 2.00746 4.42942 1.84767 4.74302C1.66602 5.09954 1.66602 5.56625 1.66602 6.49967V14.4997C1.66602 15.4331 1.66602 15.8998 1.84767 16.2563C2.00746 16.5699 2.26243 16.8249 2.57603 16.9847C2.93255 17.1663 3.39926 17.1663 4.33268 17.1663Z" stroke="#437EF7" stroke-width="1.67"/>
</g>
</svg>
