<svg width="20" height="21" viewBox="0 0 20 21" fill="none" xmlns="http://www.w3.org/2000/svg">
<g id="phone">
<path id="Icon" d="M7.4842 8.62897C8.01415 9.73275 8.73658 10.7673 9.6515 11.6822C10.5664 12.5971 11.6009 13.3195 12.7047 13.8495C12.7996 13.895 12.8471 13.9178 12.9072 13.9353C13.1206 13.9976 13.3828 13.9529 13.5636 13.8234C13.6144 13.787 13.6579 13.7435 13.745 13.6564C14.0112 13.3902 14.1443 13.2571 14.2781 13.1701C14.7829 12.8419 15.4336 12.8419 15.9383 13.1701C16.0721 13.2571 16.2053 13.3902 16.4714 13.6564L16.6198 13.8048C17.0245 14.2095 17.2268 14.4118 17.3367 14.6291C17.5553 15.0612 17.5553 15.5716 17.3367 16.0038C17.2268 16.2211 17.0245 16.4234 16.6198 16.828L16.4998 16.9481C16.0965 17.3513 15.8949 17.553 15.6208 17.707C15.3166 17.8778 14.8441 18.0007 14.4952 17.9997C14.1808 17.9987 13.9659 17.9377 13.5361 17.8158C11.2264 17.1602 9.04692 15.9233 7.22865 14.105C5.41039 12.2867 4.17347 10.1073 3.51791 7.79756C3.39592 7.36777 3.33493 7.15288 3.33399 6.83845C3.33295 6.48955 3.45582 6.01709 3.6267 5.7129C3.78069 5.43876 3.98233 5.23713 4.3856 4.83386L4.50562 4.71383C4.91028 4.30918 5.1126 4.10685 5.3299 3.99694C5.76206 3.77836 6.27241 3.77836 6.70457 3.99694C6.92186 4.10685 7.12419 4.30918 7.52884 4.71383L7.67722 4.86221C7.94342 5.12841 8.07652 5.26151 8.16354 5.39535C8.49171 5.90009 8.49171 6.55079 8.16354 7.05553C8.07652 7.18938 7.94342 7.32248 7.67722 7.58867C7.59018 7.67571 7.54666 7.71924 7.51024 7.77011C7.38079 7.95089 7.33609 8.21302 7.39831 8.42649C7.41583 8.48656 7.43862 8.53403 7.4842 8.62897Z" stroke="#437EF7" stroke-width="1.67" stroke-linecap="round" stroke-linejoin="round"/>
</g>
</svg>
